<?xml version="1.0" standalone="no"?>
<!DOCTYPE svg PUBLIC "-//W3C//DTD SVG 1.1//EN" "http://www.w3.org/Graphics/SVG/1.1/DTD/svg11.dtd" >
<svg xmlns="http://www.w3.org/2000/svg">
<metadata></metadata>
<defs>
<font id="TradeGothicLTStdBoldNo.2" horiz-adv-x="1251" >
<font-face units-per-em="2048" ascent="1479" descent="-569" />
<missing-glyph horiz-adv-x="624" />
<glyph unicode="&#xfb01;" horiz-adv-x="1138" d="M25 860v205h145v131q0 170 72 238q70 65 229 65h168v-205h-70q-80 0 -111.5 -26.5t-31.5 -87.5v-115h215v-205h-215v-860h-254v860h-147zM754 0v1065h254v-1065h-254zM754 1262v237h254v-237h-254z" />
<glyph unicode="&#xfb02;" horiz-adv-x="1138" d="M25 860v205h145v131q0 170 72 238q70 65 229 65h168v-205h-70q-80 0 -111.5 -26.5t-31.5 -87.5v-115h215v-205h-215v-860h-254v860h-147zM754 0v1479h254v-1479h-254z" />
<glyph horiz-adv-x="0" />
<glyph horiz-adv-x="2048" />
<glyph unicode="&#xd;" horiz-adv-x="624" />
<glyph unicode=" "  horiz-adv-x="624" />
<glyph unicode="&#x09;" horiz-adv-x="624" />
<glyph unicode="&#xa0;" horiz-adv-x="624" />
<glyph unicode="!" horiz-adv-x="681" d="M188 1479h304l-54 -979h-196zM199 0v291h282v-291h-282z" />
<glyph unicode="&#x22;" horiz-adv-x="681" d="M49 922v557h230v-557h-230zM403 922v557h230v-557h-230z" />
<glyph unicode="#" d="M125 432v184h190l35 246h-164v185h189l57 432h193l-56 -432h197l57 432h193l-55 -432h163v-185h-188l-35 -246h164v-184h-191l-57 -432h-192l55 432h-197l-57 -432h-193l56 432h-164zM510 616h197l34 246h-196z" />
<glyph unicode="$" d="M86 244l176 151q57 -86 122 -128t155 -62v444q-298 62 -403 259q-36 67 -36 161t36 172t96 130q121 104 307 108v147h151v-147q119 -4 218.5 -53.5t201.5 -149.5l-160 -158q-61 59 -119.5 101.5t-140.5 54.5v-410q231 -70 335 -170q118 -112 118 -297q0 -190 -133 -295 q-118 -93 -320 -102v-246h-151v246q-293 30 -453 244zM330 1093.5q0 -86.5 49 -122t160 -66.5v369q-94 -6 -151.5 -50t-57.5 -130.5zM690 205q152 0 204 95q19 36 19 91q0 90 -61 138.5t-162 74.5v-399z" />
<glyph unicode="%" horiz-adv-x="1820" d="M70 1110q0 151 106 259q108 110 262 110t262 -110q107 -108 107 -259t-107 -259q-108 -110 -262 -110t-262 110q-106 108 -106 259zM270 1110q0 -67 50 -116q51 -52 118 -52q68 0 120 52q48 48 48 116t-48 116q-52 52 -120 52q-67 0 -118 -52q-50 -49 -50 -116zM403 -20 l850 1519h174l-849 -1519h-175zM1014 369q0 151 106 259q107 109 262 109t262 -109q107 -108 107 -259t-107 -259q-107 -110 -262 -110q-156 0 -262 110q-106 109 -106 259zM1214 369q0 -68 50 -117q50 -51 118 -51q69 0 120 51q48 48 48 117q0 68 -48 117q-52 51 -120 51 q-67 0 -118 -51q-50 -50 -50 -117z" />
<glyph unicode="&#x26;" horiz-adv-x="1366" d="M82 410q0 186 147 313q45 39 99 76q-61 88 -93 168t-32 173t27.5 156.5t77.5 108.5q104 94 270 94q144 0 248 -95t104 -235q0 -177 -182 -329q-52 -43 -103 -84q125 -174 260 -293q84 123 139 278l226 -61q-82 -220 -180 -363q105 -96 208 -100v-237q-111 0 -163 22 q-82 33 -205 133q-151 -155 -375 -155q-215 0 -339 104q-134 111 -134 326zM348 437.5q0 -56.5 17.5 -93.5t48.5 -66q65 -61 135 -61q131 0 213 82q-178 138 -295 317q-53 -43 -86 -82.5t-33 -96zM440 1179q0 -127 78 -245q174 132 174 246q0 61 -31.5 106t-85 45 t-94.5 -40.5t-41 -111.5z" />
<glyph unicode="'" horiz-adv-x="454" d="M113 922v557h229v-557h-229z" />
<glyph unicode="(" horiz-adv-x="681" d="M102 664q0 245 73 444q62 168 206 391h248q-297 -382 -297 -835q0 -456 297 -836h-248q-146 226 -194 356.5t-66.5 239t-18.5 240.5z" />
<glyph unicode=")" horiz-adv-x="681" d="M53 -172q297 382 297 836q0 455 -297 835h248q144 -223 193 -356t67.5 -240.5t18.5 -238.5q0 -248 -73 -447q-60 -163 -206 -389h-248z" />
<glyph unicode="*" horiz-adv-x="1024" d="M135 1128l53 183l273 -140l8 11l-63 297h202l-53 -299l10 -11l262 152l62 -184l-299 -47l219 -218l-152 -118l-137 272l-14 -2l-131 -268l-154 108l217 215l-4 13z" />
<glyph unicode="+" horiz-adv-x="1228" d="M82 422v221h422v422h221v-422h422v-221h-422v-422h-221v422h-422z" />
<glyph unicode="," horiz-adv-x="624" d="M170 0v291h283v-291l-131 -307h-134l105 307h-123z" />
<glyph unicode="-" horiz-adv-x="681" d="M90 422v221h502v-221h-502z" />
<glyph unicode="." horiz-adv-x="624" d="M170 0v291h283v-291h-283z" />
<glyph unicode="/" horiz-adv-x="569" d="M-57 -20l460 1519h224l-461 -1519h-223z" />
<glyph unicode="0" d="M86 739q0 533 288 701q103 59 251 59q277 0 417 -221q121 -192 121 -539q0 -534 -289 -700q-102 -59 -249 -59q-279 0 -417 220q-122 194 -122 539zM352 739q0 -422 161 -511q50 -27 112 -27q272 0 272 538q0 423 -161 511q-50 28 -111 28q-273 0 -273 -539z" />
<glyph unicode="1" d="M266 1225v172q225 9 322 102h207v-1294h227v-205h-723v205h229v1020h-262z" />
<glyph unicode="2" d="M115 0v244q10 57 69.5 122.5t140.5 135t172 142.5t167 146q180 170 180 275.5t-58.5 159t-165 53.5t-172 -65.5t-90.5 -168.5l-237 52q24 173 165 288q144 115 343 115q206 0 337 -109q144 -120 144 -317q0 -135 -57.5 -236.5t-154.5 -194.5t-224 -190.5t-264 -222.5h700 v-229h-995z" />
<glyph unicode="3" d="M63 266l213 121q107 -186 312 -186q106 0 177 57q79 64 79 160t-45 146t-111 75q-94 35 -291 35v221q192 0 263 29.5t103 70.5t32 114t-60.5 121t-153.5 48t-160 -44t-122 -104l-176 160q198 209 450 209q211 0 345 -97q143 -103 143 -284q0 -220 -223 -319 q133 -41 202.5 -138.5t69.5 -225.5t-45 -212t-119 -138q-144 -105 -360 -105q-257 0 -428 162q-56 53 -95 124z" />
<glyph unicode="4" d="M49 340v260l631 879h289v-934h209v-205h-209v-340h-254v340h-666zM254 545h461v659h-4z" />
<glyph unicode="5" d="M111 256l221 115q35 -78 110.5 -122t151.5 -46q141 -4 207.5 81t66.5 224q0 118 -67 192q-70 78 -185 78q-78 0 -135 -35.5t-88 -91.5l-213 41l56 787h798v-230h-598l-20 -336q65 65 173 80q44 6 123.5 6t160.5 -43t139 -112q123 -146 123 -336q0 -248 -139 -386 q-141 -142 -406 -142q-176 0 -297 75.5t-182 200.5z" />
<glyph unicode="6" d="M100 651q0 389 167 617q170 231 468 231q189 0 367 -110l-117 -213q-117 102 -250 102q-153 0 -258 -132q-106 -133 -110 -319q136 119 331 119q200 0 325 -132q130 -138 130 -347q0 -226 -151 -359q-143 -128 -371 -128q-241 0 -383 166q-148 175 -148 505zM367 557 q0 -176 89 -272q78 -84 189.5 -84t177.5 69.5t66 189.5t-65.5 192.5t-190.5 72.5q-178 0 -266 -168z" />
<glyph unicode="7" d="M119 1249v230h1014v-154l-609 -1325h-293l598 1249h-710z" />
<glyph unicode="8" d="M76 367.5q0 167.5 81 263.5t216 155q-119 63 -175 136q-67 87 -67 189.5t35 171.5t100 117q133 99 359 99t359 -99q65 -48 99.5 -117t34.5 -144t-17.5 -125.5t-48.5 -91.5q-57 -74 -175 -136q135 -59 216 -155t81 -250q0 -181 -158 -292q-155 -109 -391 -109 q-237 0 -391 109q-158 111 -158 278.5zM342 400q0 -99 71 -157.5t212 -58.5t211.5 58.5t70.5 156.5q0 88 -126 184q-50 38 -100 61.5t-75 23.5t-68.5 -20.5t-87.5 -57.5q-108 -91 -108 -190zM397 1137.5q0 -62.5 24.5 -103.5t60.5 -70q76 -63 143 -63q60 0 142 73 q85 76 85 151t-51 122t-176 47t-176.5 -47t-51.5 -109.5z" />
<glyph unicode="9" d="M74 1012q0 226 150 360q144 127 372 127q239 0 382 -167q148 -173 148 -505q0 -390 -166.5 -618.5t-467.5 -228.5q-189 0 -367 110l117 213q117 -102 250 -102q152 0 258 131q106 132 110 319q-136 -119 -332 -119q-197 0 -324 134q-130 135 -130 346zM338 1019 q0 -120 65.5 -192.5t190.5 -72.5q178 0 266 168q0 176 -89 272q-78 84 -190 84t-177.5 -69.5t-65.5 -189.5z" />
<glyph unicode=":" horiz-adv-x="624" d="M170 0v291h283v-291h-283zM170 614v291h283v-291h-283z" />
<glyph unicode=";" horiz-adv-x="624" d="M170 0v291h283v-291l-131 -307h-134l105 307h-123zM170 614v291h283v-291h-283z" />
<glyph unicode="&#x3c;" horiz-adv-x="1228" d="M82 438v189l1065 454v-227l-762 -322l762 -321v-227z" />
<glyph unicode="=" horiz-adv-x="1228" d="M82 197v221h1065v-221h-1065zM82 647v221h1065v-221h-1065z" />
<glyph unicode="&#x3e;" horiz-adv-x="1228" d="M82 -16v227l762 321l-762 322v227l1065 -454v-189z" />
<glyph unicode="?" horiz-adv-x="909" d="M20 1180q39 154 147.5 236.5t274.5 82.5q155 0 260 -84q111 -88 111 -244q0 -102 -46 -174.5t-101 -138.5t-101.5 -132.5t-46.5 -152.5v-75h-225v112q0 88 41 164t90 146t90 134t41 120.5t-39 88t-83 31.5t-72.5 -16t-50.5 -42q-46 -56 -54 -122zM268 0v291h283v-291 h-283z" />
<glyph unicode="@" horiz-adv-x="1638" d="M92 736q0 163 60.5 302.5t163 241.5t240.5 160.5t282.5 58.5t269.5 -44t222 -124t155.5 -194.5t58.5 -241.5t-28.5 -214t-74.5 -152.5t-103.5 -110.5t-113.5 -73q-105 -52 -167 -52q-123 0 -127 104l-4 2q-37 -43 -91.5 -74.5t-114 -31.5t-117.5 28.5t-102 78.5 q-98 110 -98 251q0 195 112 335q120 149 288 149t252 -127l22 102h180l-100 -500q-12 -48 -12 -83t29 -35q76 0 134 84q66 93 66 231.5t-40 233t-110 157.5q-143 129 -378 129q-247 0 -400 -169q-149 -165 -149 -421q0 -264 163 -427q158 -158 402.5 -158t409.5 143h184 q-104 -154 -255.5 -234.5t-324 -80.5t-312.5 56t-244.5 157.5t-166 240.5t-61.5 302zM627 694.5q0 -86.5 40.5 -135.5t101 -49t100.5 21.5t69 55.5q59 69 59 156t-43 134t-102 47t-98 -19.5t-67 -52.5q-60 -71 -60 -157.5z" />
<glyph unicode="A" d="M27 0l426 1481h352l420 -1481h-281l-82 319h-467l-88 -319h-280zM457 553h344l-166 643h-4z" />
<glyph unicode="B" horiz-adv-x="1366" d="M160 0v1479h549q479 0 501 -363q0 -117 -51 -203t-174 -133q143 -58 201 -140q57 -81 57 -251q0 -278 -295 -361q-102 -28 -243 -28h-545zM442 229h283q236 0 236 215t-236 215h-283v-430zM442 889h283q102 0 152.5 51t50.5 129t-50.5 129t-152.5 51h-283v-360z" />
<glyph unicode="C" d="M61 739q0 365 155 562.5t439 197.5q213 0 338 -95t178 -294l-256 -61q-31 94 -97 153.5t-171 59.5q-141 0 -222 -130.5t-81 -392.5v-19q0 -503 311 -503q98 0 161 45q69 50 128 174l262 -69q-132 -387 -551 -387q-285 0 -439.5 197.5t-154.5 561.5z" />
<glyph unicode="D" horiz-adv-x="1366" d="M160 0v1479h489q471 0 615 -404q49 -139 49 -336q0 -374 -187 -565q-170 -174 -477 -174h-489zM442 238h189q321 0 381 312q18 91 18 189q0 355 -200 461q-78 41 -199 41h-189v-1003z" />
<glyph unicode="E" d="M172 0v1479h979v-238h-696v-352h506v-238h-506v-413h719v-238h-1002z" />
<glyph unicode="F" horiz-adv-x="1138" d="M160 0v1479h942v-238h-660v-352h494v-238h-494v-651h-282z" />
<glyph unicode="G" horiz-adv-x="1366" d="M61 717q0 523 321 713q118 69 296 69q212 0 354 -107q127 -98 182 -270l-262 -69q-51 111 -118.5 160t-162 49t-152.5 -38t-97 -108q-78 -138 -78 -381t83 -380.5t226 -137.5t226.5 82t87.5 211h-281v238h553v-748h-205v152q-90 -98 -179 -135t-223.5 -37t-245 56 t-182.5 156q-143 199 -143 525z" />
<glyph unicode="H" horiz-adv-x="1478" d="M172 0v1479h283v-590h569v590h283v-1479h-283v635h-569v-635h-283z" />
<glyph unicode="I" horiz-adv-x="681" d="M199 0v1479h282v-1479h-282z" />
<glyph unicode="J" horiz-adv-x="909" d="M-10 178l194 146q37 -61 72 -84t84 -23t82 39t33 137v1086h282v-1080q0 -419 -399 -419q-220 0 -348 198z" />
<glyph unicode="K" horiz-adv-x="1366" d="M160 0v1479h282v-658l494 658h326l-420 -555l487 -924h-313l-367 702l-207 -258v-444h-282z" />
<glyph unicode="L" horiz-adv-x="1138" d="M160 0v1479h282v-1241h643v-238h-925z" />
<glyph unicode="M" horiz-adv-x="1705" d="M166 0v1479h397l285 -1033h4l287 1033h401v-1479h-246v1163h-4l-332 -1163h-215l-327 1163h-4v-1163h-246z" />
<glyph unicode="N" horiz-adv-x="1478" d="M166 0v1479h295l581 -1008h5v1008h266v-1479h-273l-604 1053h-4v-1053h-266z" />
<glyph unicode="O" horiz-adv-x="1366" d="M61 739q0 365 158 562.5t463 197.5t463 -197.5t158 -562.5t-158 -562t-463 -197t-463 197.5t-158 561.5zM342 739v-12q0 -253 81 -380q83 -130 258 -130t257 130t82 392t-82 392.5t-256 130.5t-256 -130.5t-84 -392.5z" />
<glyph unicode="P" d="M139 0v1479h541q377 0 485 -243q37 -83 37 -198q0 -440 -522 -440h-258v-598h-283zM422 827h225q221 0 261 123q12 39 12 88q0 159 -141 197q-52 14 -132 14h-225v-422z" />
<glyph unicode="Q" horiz-adv-x="1366" d="M61 739q0 365 158 562.5t463 197.5t463 -197.5t158 -553t-148 -553.5q80 -66 186 -68v-238q-132 0 -182.5 26t-84.5 57.5t-79 80.5q-127 -73 -308 -73h-5q-305 0 -463 197.5t-158 561.5zM342 739v-12q0 -253 81 -380q83 -130 259 -130q104 0 176 49q-77 110 -176 129v252 q111 -10 179.5 -58t123.5 -130q35 107 35 280q0 262 -82 392.5t-256 130.5t-256 -130.5t-84 -392.5z" />
<glyph unicode="R" horiz-adv-x="1366" d="M160 0v1479h590q351 0 445 -267q28 -79 28 -172v-8q0 -132 -67 -232q-69 -102 -204 -141l326 -659h-313l-279 602h-244v-602h-282zM442 831h209q166 0 227.5 52.5t61.5 156.5q0 209 -240 209h-258v-418z" />
<glyph unicode="S" d="M74 330l233 102q51 -104 124 -167.5t198 -63.5q177 0 231 105q19 38 19 100.5t-56.5 110.5t-141.5 87t-183.5 76t-183.5 89q-197 121 -197 316q0 191 143 307q135 107 323.5 107t328 -86t204.5 -248l-258 -80q-33 86 -98.5 139.5t-161.5 53.5t-155.5 -39t-59.5 -113.5 t56.5 -116.5t141.5 -78t183 -73t183 -91q198 -126 198 -344t-135.5 -330.5t-382.5 -112.5q-181 0 -336 94q-157 95 -217 256z" />
<glyph unicode="T" horiz-adv-x="1138" d="M41 1243v238h1057v-238h-387v-1243h-283v1243h-387z" />
<glyph unicode="U" horiz-adv-x="1478" d="M172 553v926h283v-938q0 -180 70.5 -252t213.5 -72t214 71.5t71 252.5v938h283v-926q0 -301 -171 -449q-145 -124 -397 -124q-394 0 -521 302q-46 109 -46 271z" />
<glyph unicode="V" horiz-adv-x="1138" d="M20 1479h279l262 -1090h4l275 1090h278l-391 -1479h-315z" />
<glyph unicode="W" horiz-adv-x="1705" d="M41 1479h264l187 -998h4l211 998h290l195 -998h4l203 998h264l-307 -1479h-287l-215 1053h-4l-213 -1053h-287z" />
<glyph unicode="X" horiz-adv-x="1138" d="M16 0l400 758l-375 721h307l221 -457l222 457h307l-375 -721l399 -758h-307l-246 502l-245 -502h-308z" />
<glyph unicode="Y" horiz-adv-x="1138" d="M20 1479h295l254 -586l254 586h295l-407 -889v-590h-283v590z" />
<glyph unicode="Z" horiz-adv-x="1138" d="M33 0v240l690 1001h-643v238h999v-226l-714 -1015h720v-238h-1052z" />
<glyph unicode="[" horiz-adv-x="681" d="M106 -152v1631h478v-123h-256v-1385h260v-123h-482z" />
<glyph unicode="\" horiz-adv-x="569" d="M-57 1499h223l461 -1519h-224z" />
<glyph unicode="]" horiz-adv-x="681" d="M94 -29h260v1385h-256v123h477v-1631h-481v123z" />
<glyph unicode="^" horiz-adv-x="1228" d="M143 711l369 768h205l368 -768h-225l-246 538l-247 -538h-224z" />
<glyph unicode="_" horiz-adv-x="1024" d="M0 -154h1024v-102h-1024v102z" />
<glyph unicode="`" horiz-adv-x="569" d="M-57 1499h315l193 -299h-209z" />
<glyph unicode="a" horiz-adv-x="1024" d="M37 262q0 182 149.5 281.5t460.5 136.5v90q0 61 -44 94t-123 33q-127 0 -222 -131l-164 125q49 85 165 141q109 54 216 54h11q112 -3 190 -25.5t128 -72.5q97 -97 97 -333v-501q0 -97 21 -154h-248l-17 92q-78 -53 -154.5 -82.5t-162.5 -29.5t-140.5 23.5t-89.5 62.5 q-73 81 -73 196zM291 293q0 -59 34.5 -92t88.5 -33q100 0 233 113v229q-172 -33 -232 -60q-124 -57 -124 -157z" />
<glyph unicode="b" horiz-adv-x="1138" d="M131 0v1479h254v-512h4q55 76 189 109q36 9 69 9q195 0 317 -163q109 -148 109 -361q0 -261 -107 -415q-114 -166 -319 -166q-86 0 -153.5 34.5t-135.5 100.5l-28 -115h-199zM385 279q20 -16 37.5 -33t39.5 -30q52 -32 120 -32q115 0 176 89t61 259t-61.5 259.5 t-165.5 89.5t-207 -90v-512z" />
<glyph unicode="c" horiz-adv-x="1024" d="M49 532q0 254 123 404q122 149 340 149q152 0 263.5 -74.5t156.5 -209.5l-211 -82q-31 68 -74 115t-142 47q-202 0 -202 -349q0 -180 52.5 -264t150.5 -84t149.5 49.5t89.5 120.5l193 -108q-78 -143 -178 -206q-98 -62 -223 -62h-6q-128 2 -214 40.5t-145 110.5 q-123 150 -123 403z" />
<glyph unicode="d" horiz-adv-x="1138" d="M66 561q0 212 109 361q120 163 317 163q64 0 121 -25q95 -41 137 -93h4v512h254v-1479h-215l-13 115q-68 -66 -135 -100.5t-163 -34.5t-176.5 44t-133.5 122q-106 154 -106 415zM319 532q0 -170 61.5 -259t176.5 -89q93 0 159 62q17 16 38 33v512q-100 90 -206 90 t-167.5 -89.5t-61.5 -259.5z" />
<glyph unicode="e" horiz-adv-x="1024" d="M49 532q0 254 123 404q122 149 340 149q202 0 322 -147q112 -138 112 -342v-104h-643q4 -166 67.5 -237t152.5 -71t140.5 36t98.5 91l184 -114q-74 -115 -183.5 -166t-238 -51t-212 38.5t-141.5 110.5q-122 151 -122 403zM303 664h410q-4 111 -58.5 172t-146.5 61 t-146.5 -61.5t-58.5 -171.5z" />
<glyph unicode="f" horiz-adv-x="681" d="M25 860v205h145v131q0 170 72 238q70 65 229 65h168v-205h-70q-80 0 -111.5 -26.5t-31.5 -87.5v-115h215v-205h-215v-860h-254v860h-147z" />
<glyph unicode="g" horiz-adv-x="1024" d="M25 -135q0 93 62 147q55 49 130 49v5q-18 12 -45 24t-52 30q-61 44 -61 118q0 67 66 130q51 48 100 64q-66 53 -111.5 118.5t-45.5 150t26.5 151t79.5 118.5q117 115 313 115q68 0 140.5 -25.5t122.5 -68.5q72 95 222 95q13 0 27 -1v-172q-126 0 -163 -24 q57 -80 57 -172.5t-25.5 -154.5t-75.5 -108q-108 -98 -300 -98q-84 0 -141.5 -10t-57.5 -54t52 -58.5t130 -19.5t168 -10t168 -32t130 -83t52 -163q0 -126 -119 -215q-135 -100 -362 -100t-357 63.5t-130 190.5zM258 -110q0 -53 61.5 -82t172 -29t152.5 13t68 32 q48 35 48 74q0 77 -168 110q-62 12 -134.5 12t-106.5 -13t-55 -31q-38 -33 -38 -86zM301 721q0 -74 51 -125t128 -51t128 51t51 125t-51 125t-128 51t-128 -51t-51 -125z" />
<glyph unicode="h" horiz-adv-x="1138" d="M131 0v1479h254v-529q59 49 136 92t171 43q160 0 238 -96t78 -260v-729h-254v692q0 109 -33 149t-107.5 40t-135 -38t-93.5 -75v-768h-254z" />
<glyph unicode="i" horiz-adv-x="569" d="M158 0v1065h254v-1065h-254zM158 1262v237h254v-237h-254z" />
<glyph unicode="j" horiz-adv-x="569" d="M6 -166q60 -6 94 -6q84 0 84 131v1106h254v-1147q0 -164 -70.5 -235.5t-228.5 -71.5q-72 0 -133 16v207zM184 1262v237h254v-237h-254z" />
<glyph unicode="k" horiz-adv-x="1024" d="M131 0v1479h254v-826h8l314 412h290l-313 -397l336 -668h-270l-236 477l-129 -149v-328h-254z" />
<glyph unicode="l" horiz-adv-x="569" d="M158 0v1479h254v-1479h-254z" />
<glyph unicode="m" horiz-adv-x="1705" d="M131 0v1065h231v-115q72 66 141.5 100.5t166.5 34.5q204 0 274 -155q75 75 135 103q112 52 232 52q170 0 237 -163q25 -62 25 -156v-766h-254v743q0 66 -28.5 100t-98.5 38q-87 0 -213 -115v-766h-254v743q0 66 -28.5 100t-98.5 38q-87 0 -213 -115v-766h-254z" />
<glyph unicode="n" horiz-adv-x="1138" d="M131 0v1065h234v-115q72 49 152.5 92t174.5 43q160 0 238 -96t78 -260v-729h-254v692q0 109 -33 149t-107.5 40t-135 -38t-93.5 -75v-768h-254z" />
<glyph unicode="o" horiz-adv-x="1024" d="M49 532q0 254 123 404q122 149 340 149t340 -149q123 -150 123 -404q0 -253 -123 -403q-122 -149 -340 -149t-340 149q-123 150 -123 403zM303 532q0 -180 51.5 -264t157.5 -84t157.5 84t51.5 264t-51.5 264.5t-157.5 84.5t-157.5 -84t-51.5 -265z" />
<glyph unicode="p" horiz-adv-x="1138" d="M131 -389v1454h244v-98q122 118 272 118q205 0 319 -165q107 -155 107 -416q0 -213 -109 -360q-122 -164 -317 -164q-64 0 -121 24q-95 42 -137 94h-4v-487h-254zM385 274q100 -90 206 -90t167 89t61 259t-61.5 259.5t-175.5 89.5q-98 0 -159 -63q-17 -17 -38 -32v-512z " />
<glyph unicode="q" horiz-adv-x="1138" d="M66 504q0 260 106 416q113 165 320 165q86 0 153.5 -34.5t134.5 -100.5l29 115h199v-1454h-254v487h-4q-55 -76 -189 -109q-37 -9 -69 -9q-197 0 -317 164q-109 148 -109 360zM319 532q0 -170 61.5 -259t166 -89t207.5 90v512q-20 14 -38 32t-40 31q-52 32 -119 32 q-115 0 -176.5 -89.5t-61.5 -259.5z" />
<glyph unicode="r" horiz-adv-x="681" d="M115 0v1065h233v-182h4q47 96 116 147t183 55v-268q-10 2 -20 2h-25q-81 0 -166 -77q-32 -29 -51.5 -57t-19.5 -38v-647h-254z" />
<glyph unicode="s" horiz-adv-x="909" d="M45 195l170 127q114 -154 248 -154q68 0 109.5 34t41.5 83t-39.5 77.5t-98 51t-128 48t-128.5 64.5q-138 92 -138 250q0 147 106 230q103 79 227 79q257 0 394 -161l-160 -140q-107 113 -190 113q-152 0 -152 -104q0 -45 40 -73t98.5 -50.5t128 -46t128.5 -63.5 q138 -95 138 -261q0 -157 -112 -243q-99 -76 -253.5 -76t-256 55t-173.5 160z" />
<glyph unicode="t" horiz-adv-x="681" d="M25 860v205h147v352h254v-352h209v-205h-209v-602q0 -43 22.5 -58.5t60.5 -15.5t67.5 7.5t58.5 13.5v-209q-141 -16 -201 -16q-262 0 -262 245v635h-147z" />
<glyph unicode="u" horiz-adv-x="1138" d="M131 336v729h254v-692q0 -109 33 -149t107.5 -40t135 38t93.5 75v768h254v-1065h-234v115q-72 -49 -152.5 -92t-175.5 -43q-160 0 -237.5 96t-77.5 260z" />
<glyph unicode="v" horiz-adv-x="909" d="M20 1065h254l177 -721h4l180 721h254l-305 -1065h-267z" />
<glyph unicode="w" horiz-adv-x="1366" d="M20 1065h242l146 -664h4l153 664h236l147 -664h4l152 664h242l-275 -1065h-229l-158 664h-4l-156 -664h-229z" />
<glyph unicode="x" horiz-adv-x="909" d="M8 0l314 553l-302 512h281l150 -295l151 295h275l-299 -512l323 -553h-270l-178 332l-172 -332h-273z" />
<glyph unicode="y" horiz-adv-x="909" d="M18 1065h256l177 -655h4l182 655h254l-336 -1067q-86 -229 -170 -308t-242 -79q-77 0 -123 8v209q39 -8 106 -8t106.5 19.5t60 61.5t32 68.5t11.5 57.5t-11.5 63.5t-21.5 65.5z" />
<glyph unicode="z" horiz-adv-x="909" d="M37 0v180l514 680h-471v205h788v-180l-512 -680h516v-205h-835z" />
<glyph unicode="{" horiz-adv-x="681" d="M16 602v123q61 0 102.5 36t41.5 97v397q0 127 73.5 185.5t188.5 58.5h145v-123h-100q-43 0 -64.5 -30.5t-21.5 -71.5v-389q0 -102 -36 -150.5t-120 -68.5v-4q84 -20 120 -68.5t36 -151.5v-389q0 -41 21.5 -71.5t64.5 -30.5h100v-123h-145q-115 0 -188.5 58.5t-73.5 185.5 v397q0 61 -41 97t-103 36z" />
<glyph unicode="|" horiz-adv-x="454" d="M117 -20v1519h221v-1519h-221z" />
<glyph unicode="}" horiz-adv-x="681" d="M115 -49h100q43 0 64.5 30.5t21.5 71.5v389q0 102 36 150.5t120 69.5v4q-84 20 -120 68t-36 151v389q0 41 -21.5 71.5t-64.5 30.5h-100v123h145q115 0 188.5 -58.5t73.5 -185.5v-397q0 -61 41 -97t103 -36v-123q-61 0 -102.5 -36t-41.5 -97v-397q0 -127 -73.5 -185.5 t-188.5 -58.5h-145v123z" />
<glyph unicode="~" horiz-adv-x="1228" d="M143 532q86 177 254 177q86 0 235.5 -70t191 -70t66.5 13.5t46.5 34t40 47t37.5 53.5l71 -185q-62 -89 -98 -118q-76 -60 -158 -60t-137 31t-105 56q-110 55 -194 55q-112 0 -178 -148z" />
<glyph unicode="&#xa1;" horiz-adv-x="681" d="M190 -369l54 979h196l54 -979h-304zM201 819v291h282v-291h-282z" />
<glyph unicode="&#xa2;" d="M168 508.5q0 150.5 31.5 253t90.5 174.5q124 149 341 149q70 0 135 -16l78 217h119l-95 -262q131 -72 183 -223l-211 -82q-20 47 -49 88l-220 -612q29 -11 68 -11q84 0 135 49.5t90 120.5l193 -108q-78 -143 -178.5 -206t-247.5 -60q-66 0 -131 16l-92 -252h-119l106 297 q-111 63 -169 190t-58 277.5zM401 532q0 -190 72 -274l221 614q-25 8 -63 9q-106 0 -168 -84t-62 -265z" />
<glyph unicode="&#xa3;" d="M94 643v193h166q-27 159 -27 256q0 199 114 303t328 104t329.5 -116.5t115.5 -319.5h-246q-10 96 -53 155.5t-151 59.5q-91 0 -134 -66q-36 -54 -36 -154.5t35 -221.5h266v-193h-238q0 -230 -57 -340q59 -35 116.5 -60.5t119 -25.5t92 20.5t46.5 53.5q17 38 29 155h246 q0 -202 -84 -328q-92 -138 -260 -138q-197 0 -325 72q-44 24 -93 54q-47 -55 -120.5 -93t-166.5 -33v253q103 7 154 106q37 73 37 159.5t-8 144.5h-195z" />
<glyph unicode="&#xa4;" d="M92 336l107 106q-95 139 -95 297q0 160 95 297l-107 107l127 131l113 -105q135 91 293 91q155 0 293 -91l112 105l127 -131l-106 -107q94 -138 94 -297t-94 -297l106 -106l-127 -131l-112 104q-134 -90 -293 -90t-293 90l-113 -104zM338 739q0 -130 81 -217 q80 -86 206 -86q127 0 205 86q81 88 81 217t-81 217q-78 86 -205 86q-126 0 -206 -86q-81 -87 -81 -217z" />
<glyph unicode="&#xa5;" d="M57 1479h254l314 -635l315 635h254l-276 -541h192v-193h-289l-71 -139h360v-192h-369v-414h-233v414h-369v192h361l-70 139h-291v193h195z" />
<glyph unicode="&#xa6;" horiz-adv-x="454" d="M117 -20v577h221v-577h-221zM117 922v577h221v-577h-221z" />
<glyph unicode="&#xa7;" horiz-adv-x="1024" d="M102 791q0 104 62.5 169.5t161.5 71.5q-47 55 -72 106.5t-25 123.5q0 111 77 174t198 63q106 0 160.5 -26.5t89 -58.5t75.5 -79l-139 -112q-33 39 -74 73.5t-88 34.5t-76.5 -24.5t-29.5 -63.5t37 -86t92 -100t120.5 -110.5t120.5 -120.5q130 -145 130 -263 q0 -127 -116 -197q-42 -26 -106 -36q105 -109 105 -240q0 -125 -88 -194q-85 -68 -197 -68t-193 50t-145 124l140 109q74 -115 170 -115q120 0 120 102q0 78 -132 208q-56 56 -122.5 115.5t-123.5 120.5q-132 145 -132 249zM295 819q0 -31 31.5 -74t105.5 -120 q150 -156 207 -156q41 0 65.5 22.5t24.5 59.5t-38 82t-93 104.5t-86 87t-54 43.5q-41 29 -75.5 29t-61 -23.5t-26.5 -54.5z" />
<glyph unicode="&#xa8;" horiz-adv-x="569" d="M-33 1221v237h246v-237h-246zM356 1221v237h246v-237h-246z" />
<glyph unicode="&#xa9;" horiz-adv-x="1638" d="M37 739q0 178 64.5 319.5t173 240t250 149.5t294.5 51q323 0 545 -201q109 -98 173.5 -239t64.5 -320q0 -178 -64.5 -319t-173.5 -240q-222 -200 -545 -200q-324 0 -545 200q-108 99 -172.5 240t-64.5 319zM238 739q0 -267 168 -441q166 -171 413 -171q241 0 410 171 q172 174 172 441q0 268 -172 442q-169 171 -410 171q-247 0 -413 -171q-168 -174 -168 -442zM422 745q0 196 114 317q118 126 310 126q137 0 237.5 -79t124.5 -232h-176q-14 72 -67.5 101.5t-118.5 29.5q-100 0 -153.5 -70t-53.5 -186.5t57.5 -192.5t153.5 -76 q167 0 182 142h185q-23 -152 -129 -240q-100 -82 -238 -82q-189 0 -310 127q-118 123 -118 315z" />
<glyph unicode="&#xaa;" horiz-adv-x="614" d="M12 1006q0 111 95.5 169t289.5 80v48q0 66 -94.5 65.5t-146.5 -61.5l-107 75q52 82 183 109q94 20 169.5 -0.5t108.5 -50.5q63 -56 63 -199v-301q0 -59 15 -92h-172l-10 57q-90 -69 -195.5 -69t-152 52t-46.5 118zM188 1024q0 -57 68 -57q41 0 83 14t58 35v137 q-150 -24 -191 -73q-18 -23 -18 -56z" />
<glyph unicode="&#xab;" horiz-adv-x="1138" d="M123 526l246 334h229l-252 -334l252 -321h-229zM541 526l245 334h230l-252 -334l252 -321h-230z" />
<glyph unicode="&#xac;" horiz-adv-x="1228" d="M82 647v221h1065v-671h-221v450h-844z" />
<glyph unicode="&#xad;" horiz-adv-x="681" d="M90 422v221h502v-221h-502z" />
<glyph unicode="&#xae;" horiz-adv-x="1638" d="M37 739q0 178 64.5 319.5t173 240t250 149.5t294.5 51q323 0 545 -201q109 -98 173.5 -239t64.5 -320q0 -178 -64.5 -319t-173.5 -240q-222 -200 -545 -200q-324 0 -545 200q-108 99 -172.5 240t-64.5 319zM238 739q0 -267 168 -441q166 -171 413 -171q241 0 410 171 q172 174 172 441q0 268 -172 442q-169 171 -410 171q-247 0 -413 -171q-168 -174 -168 -442zM510 324v833h313q164 0 252 -54t88 -184.5t-61.5 -179.5t-167.5 -55l217 -360h-182l-195 350h-84v-350h-180zM690 813h158q74 0 104.5 32t30.5 84t-39 70.5t-104 18.5h-150v-205z " />
<glyph unicode="&#xaf;" horiz-adv-x="569" d="M-70 1266v151h709v-151h-709z" />
<glyph unicode="&#xb0;" horiz-adv-x="819" d="M117 1206q0 123 85 208t208 85q124 0 208 -85q84 -86 84 -208t-84 -208q-84 -85 -208 -85q-123 0 -208 85t-85 208zM248 1206q0 -68 47 -119t115 -51t114.5 51.5t46.5 118.5q0 68 -47 119t-114 51q-68 0 -115 -51t-47 -119z" />
<glyph unicode="&#xb1;" horiz-adv-x="1228" d="M82 0v221h1065v-221h-1065zM82 573v222h422v270h221v-270h422v-222h-422v-272h-221v272h-422z" />
<glyph unicode="&#xb2;" horiz-adv-x="749" d="M41 598v147q12 69 245 240q132 98 177 153.5t45 92.5q0 121 -135 121q-72 0 -115 -39t-59 -99l-154 31q16 112 108 181q95 73 222 73q134 0 221 -65q92 -70 92 -191q0 -80 -38 -141.5t-99.5 -116.5t-141 -111.5t-163.5 -128.5h442v-147h-647z" />
<glyph unicode="&#xb3;" horiz-adv-x="749" d="M25 772l139 72q73 -111 203 -111q63 0 110 34t47 91t-27.5 85t-69.5 41q-65 20 -181 20v135q119 0 163 16q83 30 83 96q0 43 -35 71t-95 30q-97 -3 -184 -88l-115 98q72 78 142.5 107.5t183.5 29.5t198 -57.5t85 -169.5q0 -137 -144 -191v-4q86 -23 131.5 -81t45.5 -135 t-30 -127t-77 -83q-93 -65 -214 -65q-258 0 -359 186z" />
<glyph unicode="&#xb4;" horiz-adv-x="569" d="M119 1200l192 299h316l-299 -299h-209z" />
<glyph unicode="&#xb5;" horiz-adv-x="1138" d="M131 -389v1454h254v-692q0 -109 33 -149t107.5 -40t135 38t93.5 75v768h254v-1065h-234v115q-72 -49 -152.5 -92t-175.5 -43q-33 0 -61 4v-373h-254z" />
<glyph unicode="&#xb6;" horiz-adv-x="1269" d="M45 1110q0 201 135 294q108 75 295 75h725v-172h-149v-1446h-209v1446h-183v-1446h-208v895q-183 0 -293 95q-113 97 -113 259z" />
<glyph unicode="&#xb7;" horiz-adv-x="624" d="M156 531q0 64 44 110.5t108.5 46.5t111.5 -45t47 -111t-47 -110.5t-113 -44.5t-108.5 45t-42.5 109z" />
<glyph unicode="&#xb8;" horiz-adv-x="569" d="M43 -416l37 86q86 -32 148.5 -32t90 16t27.5 63.5t-26.5 58.5t-63 11t-84.5 -12l-41 41l121 184h108l-88 -129q41 10 92.5 10t106.5 -37t55 -103t-24.5 -103t-62.5 -60q-75 -47 -154 -47q-114 0 -242 53z" />
<glyph unicode="&#xb9;" horiz-adv-x="749" d="M133 1323v115q146 9 209 61h137v-766h144v-135h-469v135h137v590h-158z" />
<glyph unicode="&#xba;" horiz-adv-x="614" d="M6 1167q0 154 80 243t221 89t220 -89t79 -243t-78.5 -242.5t-220.5 -88.5q-141 0 -221 88.5t-80 242.5zM182 1167q0 -201 125 -200q123 -1 123 200t-124 201t-124 -201z" />
<glyph unicode="&#xbb;" horiz-adv-x="1138" d="M123 205l252 334l-252 321h229l246 -321l-246 -334h-229zM541 205l252 334l-252 321h229l246 -321l-246 -334h-229z" />
<glyph unicode="&#xbc;" horiz-adv-x="1875" d="M154 1323v115q147 9 208 61h138v-766h143v-135h-469v135h137v590h-157zM432 -20l846 1519h180l-844 -1519h-182zM1085 205v172l394 512h211v-549h129v-135h-129v-205h-189v205h-416zM1241 340h260v360h-4z" />
<glyph unicode="&#xbd;" horiz-adv-x="1875" d="M154 1323v115q147 9 208 61h138v-766h143v-135h-469v135h137v590h-157zM399 -20l846 1519h180l-843 -1519h-183zM1090 0v147q10 56 134 155q52 42 110.5 85t107.5 85q114 98 114 161q0 121 -135 121q-72 0 -114.5 -39t-59.5 -99l-153 31q16 112 107 181q95 73 222 73 q135 0 222 -65q92 -70 92 -191q0 -80 -38 -141.5t-99.5 -116.5t-141.5 -111.5t-164 -128.5h443v-147h-647z" />
<glyph unicode="&#xbe;" horiz-adv-x="1875" d="M57 772l140 72q73 -111 202 -111q63 0 110.5 34t47.5 91t-27.5 85t-69.5 41q-65 20 -181 20v135q119 0 163 16q82 30 82 96q0 43 -34.5 71t-94.5 30q-97 -3 -184 -88l-115 98q72 78 142.5 107.5t183 29.5t198 -57.5t85.5 -169.5q0 -137 -144 -191v-4q86 -23 131 -81 t45 -135t-29.5 -127t-76.5 -83q-93 -65 -214 -65q-257 0 -360 186zM461 -20l846 1519h180l-844 -1519h-182zM1085 205v172l394 512h211v-549h129v-135h-129v-205h-189v205h-416zM1241 340h260v360h-4z" />
<glyph unicode="&#xbf;" horiz-adv-x="909" d="M96 -61q0 102 46 174.5t102 138.5q55 66 101 132.5t46 152.5v75h225v-112q0 -88 -40.5 -164t-90.5 -146q-49 -70 -90 -134t-41 -120.5t39 -88t83 -31.5t73 16t51 42q45 55 53 122l236 -66q-39 -154 -147.5 -236.5t-274.5 -82.5q-159 0 -261 84q-110 90 -110 244zM358 819 v291h283v-291h-283z" />
<glyph unicode="&#xc0;" d="M27 0l426 1481h352l420 -1481h-281l-82 319h-467l-88 -319h-280zM285 1860h315l193 -299h-209zM457 553h344l-166 643h-4z" />
<glyph unicode="&#xc1;" d="M27 0l426 1481h352l420 -1481h-281l-82 319h-467l-88 -319h-280zM457 553h344l-166 643h-4zM461 1561l192 299h316l-299 -299h-209z" />
<glyph unicode="&#xc2;" d="M27 0l426 1481h352l420 -1481h-281l-82 319h-467l-88 -319h-280zM266 1561l232 299h254l235 -299h-231l-129 168l-131 -168h-230zM457 553h344l-166 643h-4z" />
<glyph unicode="&#xc3;" d="M27 0l426 1481h352l420 -1481h-281l-82 319h-467l-88 -319h-280zM252 1577q21 165 140 229q40 21 87 21t88 -12.5t78 -25.5t70 -25.5t63.5 -12.5t56 26.5t33.5 61.5h133q-24 -112 -60 -159.5t-74 -69t-85 -21.5t-87 11.5t-79 24.5q-106 36 -145 36q-63 0 -92 -84h-127z M457 553h344l-166 643h-4z" />
<glyph unicode="&#xc4;" d="M27 0l426 1481h352l420 -1481h-281l-82 319h-467l-88 -319h-280zM309 1581v238h246v-238h-246zM457 553h344l-166 643h-4zM698 1581v238h246v-238h-246z" />
<glyph unicode="&#xc5;" d="M27 0l426 1481h352l420 -1481h-281l-82 319h-467l-88 -319h-280zM406 1779q0 46 17 87t47 70q66 65 157 65q92 0 156.5 -64.5t64.5 -156.5q0 -91 -64 -157q-63 -64 -157 -64q-93 0 -157 64t-64 156zM457 553h344l-166 643h-4zM516 1780q0 -47 32 -79t79 -32t78.5 32 t31.5 79t-31.5 78.5t-78.5 31.5t-79 -31.5t-32 -78.5z" />
<glyph unicode="&#xc6;" horiz-adv-x="1933" d="M14 0l744 1479h1075v-238h-621v-352h430v-238h-430v-413h643v-238h-925v346h-451l-164 -346h-301zM596 584h334v690h-4z" />
<glyph unicode="&#xc7;" d="M61 748.5q0 355.5 155 553t439 197.5q213 0 338 -95t178 -294l-256 -61q-31 94 -97 153.5t-171 59.5q-141 0 -221 -130.5t-82 -392.5q-4 -522 311 -522q98 0 161 45q69 50 128 174l262 -69q-122 -360 -497 -385l-76 -111q41 10 92.5 10t106.5 -37t55 -103t-24.5 -103 t-62.5 -60q-75 -47 -154 -47q-113 0 -243 53l37 86q86 -32 148.5 -32t90.5 16t28 63.5t-27 58.5t-62 11t-86 -12l-40 41l108 166q-258 20 -398.5 215.5t-140.5 551z" />
<glyph unicode="&#xc8;" d="M172 0v1479h979v-238h-696v-352h506v-238h-506v-413h719v-238h-1002zM324 1860h315l192 -299h-208z" />
<glyph unicode="&#xc9;" d="M172 0v1479h979v-238h-696v-352h506v-238h-506v-413h719v-238h-1002zM500 1561l192 299h316l-299 -299h-209z" />
<glyph unicode="&#xca;" d="M172 0v1479h979v-238h-696v-352h506v-238h-506v-413h719v-238h-1002zM305 1561l232 299h254l235 -299h-231l-129 168l-131 -168h-230z" />
<glyph unicode="&#xcb;" d="M172 0v1479h979v-238h-696v-352h506v-238h-506v-413h719v-238h-1002zM348 1581v238h246v-238h-246zM737 1581v238h246v-238h-246z" />
<glyph unicode="&#xcc;" horiz-adv-x="681" d="M-6 1860h315l193 -299h-209zM199 0v1479h282v-1479h-282z" />
<glyph unicode="&#xcd;" horiz-adv-x="681" d="M170 1561l192 299h316l-299 -299h-209zM199 0v1479h282v-1479h-282z" />
<glyph unicode="&#xce;" horiz-adv-x="681" d="M-25 1561l232 299h254l235 -299h-231l-129 168l-131 -168h-230zM199 0v1479h282v-1479h-282z" />
<glyph unicode="&#xcf;" horiz-adv-x="681" d="M18 1581v238h246v-238h-246zM199 0v1479h282v-1479h-282zM408 1581v238h245v-238h-245z" />
<glyph unicode="&#xd0;" horiz-adv-x="1366" d="M23 635v254h137v590h489q471 0 615 -404q49 -139 49 -336q0 -374 -187 -565q-170 -174 -477 -174h-489v635h-137zM442 238h189q321 0 381 312q18 91 18 189q0 355 -200 461q-78 41 -199 41h-189v-352h306v-254h-306v-397z" />
<glyph unicode="&#xd1;" horiz-adv-x="1478" d="M166 0v1479h295l581 -1008h5v1008h266v-1479h-273l-604 1053h-4v-1053h-266zM365 1577q21 165 140 229q40 21 87 21t88 -12.5t78 -25.5t69.5 -25.5t63.5 -12.5t56.5 26.5t33.5 61.5h133q-24 -112 -60 -159.5t-74 -69t-85 -21.5t-87 11.5t-79 24.5q-108 36 -146 36 q-62 0 -91 -84h-127z" />
<glyph unicode="&#xd2;" horiz-adv-x="1366" d="M61 739q0 365 158 562.5t463 197.5t463 -197.5t158 -562.5t-158 -562t-463 -197t-463 197.5t-158 561.5zM342 739q-2 -262 81 -392t258 -130t257 130t82 392t-82 392.5t-256 130.5t-256 -130.5t-84 -392.5zM342 1860h315l193 -299h-209z" />
<glyph unicode="&#xd3;" horiz-adv-x="1366" d="M61 739q0 365 158 562.5t463 197.5t463 -197.5t158 -562.5t-158 -562t-463 -197t-463 197.5t-158 561.5zM342 739q-2 -262 81 -392t258 -130t257 130t82 392t-82 392.5t-256 130.5t-256 -130.5t-84 -392.5zM518 1561l193 299h315l-299 -299h-209z" />
<glyph unicode="&#xd4;" horiz-adv-x="1366" d="M61 739q0 365 158 562.5t463 197.5t463 -197.5t158 -562.5t-158 -562t-463 -197t-463 197.5t-158 561.5zM324 1561l231 299h254l235 -299h-231l-129 168l-131 -168h-229zM342 739q-2 -262 81 -392t258 -130t257 130t82 392t-82 392.5t-256 130.5t-256 -130.5t-84 -392.5z " />
<glyph unicode="&#xd5;" horiz-adv-x="1366" d="M61 739q0 365 158 562.5t463 197.5t463 -197.5t158 -562.5t-158 -562t-463 -197t-463 197.5t-158 561.5zM309 1577q21 163 141 229q39 21 86.5 21t88.5 -12.5t77.5 -25.5t69.5 -25.5t63.5 -12.5t56.5 26.5t34 61.5h133q-24 -112 -60 -159.5t-74 -69t-85.5 -21.5t-87 11.5 t-78.5 24.5q-108 36 -146.5 36t-58.5 -24.5t-33 -59.5h-127zM342 739q-2 -262 81 -392t258 -130t257 130t82 392t-82 392.5t-256 130.5t-256 -130.5t-84 -392.5z" />
<glyph unicode="&#xd6;" horiz-adv-x="1366" d="M61 739q0 365 158 562.5t463 197.5t463 -197.5t158 -562.5t-158 -562t-463 -197t-463 197.5t-158 561.5zM342 739q-2 -262 81 -392t258 -130t257 130t82 392t-82 392.5t-256 130.5t-256 -130.5t-84 -392.5zM367 1581v238h245v-238h-245zM756 1581v238h245v-238h-245z" />
<glyph unicode="&#xd7;" horiz-adv-x="1228" d="M82 160l375 375l-375 374l158 156l374 -373l375 373l158 -156l-375 -374l375 -375l-158 -160l-375 377l-374 -377z" />
<glyph unicode="&#xd8;" horiz-adv-x="1366" d="M-23 -135l226 338q-141 193 -141.5 547t157.5 551.5t463 197.5q195 0 330 -86l96 148h235l-186 -279q145 -195 145.5 -551.5t-157.5 -553.5t-463 -197q-203 0 -336 88l-135 -203h-234zM344 739q0 -179 31 -276l495 741q-76 57 -188 58q-174 0 -256 -130.5t-82 -392.5z M487 279q76 -61 195 -62q174 0 256 130t82 392q0 172 -37 283z" />
<glyph unicode="&#xd9;" horiz-adv-x="1478" d="M172 553v926h283v-938q0 -180 70.5 -252t213.5 -72t214 71.5t71 252.5v938h283v-926q0 -301 -171 -449q-145 -124 -397 -124q-394 0 -521 302q-46 109 -46 271zM391 1860h316l192 -299h-209z" />
<glyph unicode="&#xda;" horiz-adv-x="1478" d="M172 553v926h283v-938q0 -180 70.5 -252t213.5 -72t214 71.5t71 252.5v938h283v-926q0 -301 -171 -449q-145 -124 -397 -124q-394 0 -521 302q-46 109 -46 271zM567 1561l193 299h315l-299 -299h-209z" />
<glyph unicode="&#xdb;" horiz-adv-x="1478" d="M172 553v926h283v-938q0 -180 70.5 -252t213.5 -72t214 71.5t71 252.5v938h283v-926q0 -301 -171 -449q-145 -124 -397 -124q-394 0 -521 302q-46 109 -46 271zM373 1561l231 299h254l236 -299h-232l-129 168l-131 -168h-229z" />
<glyph unicode="&#xdc;" horiz-adv-x="1478" d="M172 553v926h283v-938q0 -180 70.5 -252t213.5 -72t214 71.5t71 252.5v938h283v-926q0 -301 -171 -449q-145 -124 -397 -124q-394 0 -521 302q-46 109 -46 271zM416 1581v238h246v-238h-246zM805 1581v238h246v-238h-246z" />
<glyph unicode="&#xdd;" horiz-adv-x="1138" d="M20 1479h295l254 -586l254 586h295l-407 -889v-590h-283v590zM403 1561l193 299h315l-299 -299h-209z" />
<glyph unicode="&#xde;" d="M139 0v1479h283v-273h258q377 0 485 -242q37 -83 37 -198q0 -440 -522 -440h-258v-326h-283zM422 555h225q221 0 261 123q12 39 12 88q0 106 -57 154q-66 57 -216 57h-225v-422z" />
<glyph unicode="&#xdf;" horiz-adv-x="1024" d="M109 0v1126q0 246 213 326q73 27 170 27q205 0 303 -97.5t98 -263.5q0 -109 -32 -182.5t-124 -120.5v-4q106 -31 176 -129t70 -276q0 -336 -217 -404q-68 -22 -126 -22q-129 0 -189 49l61 180q50 -25 92 -25q125 0 125 234q0 126 -28.5 177.5t-64.5 72t-91 20.5h-53v205 h32q55 0 89 44t34 138q0 199 -151 199q-133 0 -134 -156v-1118h-253z" />
<glyph unicode="&#xe0;" horiz-adv-x="1024" d="M37 262q0 182 149.5 281.5t460.5 136.5v90q0 61 -44 94t-123 33q-127 0 -222 -131l-164 125q49 85 165 141q115 57 227 54t190 -25.5t128 -72.5q97 -97 97 -333v-501q0 -97 21 -154h-248l-17 92q-78 -53 -154.5 -82.5t-162.5 -29.5t-140.5 23.5t-89.5 62.5 q-73 81 -73 196zM170 1499h315l193 -299h-209zM291 293q0 -59 34.5 -92t88.5 -33q100 0 233 113v229q-172 -33 -232 -60q-124 -57 -124 -157z" />
<glyph unicode="&#xe1;" horiz-adv-x="1024" d="M37 262q0 182 149.5 281.5t460.5 136.5v90q0 61 -44 94t-123 33q-127 0 -222 -131l-164 125q49 85 165 141q115 57 227 54t190 -25.5t128 -72.5q97 -97 97 -333v-501q0 -97 21 -154h-248l-17 92q-78 -53 -154.5 -82.5t-162.5 -29.5t-140.5 23.5t-89.5 62.5 q-73 81 -73 196zM291 293q0 -59 34.5 -92t88.5 -33q100 0 233 113v229q-172 -33 -232 -60q-124 -57 -124 -157zM346 1200l193 299h315l-299 -299h-209z" />
<glyph unicode="&#xe2;" horiz-adv-x="1024" d="M37 262q0 182 149.5 281.5t460.5 136.5v90q0 61 -44 94t-123 33q-127 0 -222 -131l-164 125q49 85 165 141q115 57 227 54t190 -25.5t128 -72.5q97 -97 97 -333v-501q0 -97 21 -154h-248l-17 92q-78 -53 -154.5 -82.5t-162.5 -29.5t-140.5 23.5t-89.5 62.5 q-73 81 -73 196zM152 1200l231 299h254l235 -299h-231l-129 168l-131 -168h-229zM291 293q0 -59 34.5 -92t88.5 -33q100 0 233 113v229q-172 -33 -232 -60q-124 -57 -124 -157z" />
<glyph unicode="&#xe3;" horiz-adv-x="1024" d="M37 262q0 182 149.5 281.5t460.5 136.5v90q0 61 -44 94t-123 33q-127 0 -222 -131l-164 125q49 85 165 141q115 57 227 54t190 -25.5t128 -72.5q97 -97 97 -333v-501q0 -97 21 -154h-248l-17 92q-78 -53 -154.5 -82.5t-162.5 -29.5t-140.5 23.5t-89.5 62.5 q-73 81 -73 196zM137 1217q21 162 141 227q39 22 86.5 22t88.5 -12t77 -26q102 -37 133 -37t56.5 26.5t34.5 61.5h133q-24 -113 -60 -160t-74 -68.5t-85.5 -21.5t-87 11t-78.5 24q-103 36 -144 36t-61.5 -24.5t-32.5 -58.5h-127zM291 293q0 -59 34.5 -92t88.5 -33 q100 0 233 113v229q-172 -33 -232 -60q-124 -57 -124 -157z" />
<glyph unicode="&#xe4;" horiz-adv-x="1024" d="M37 262q0 182 149.5 281.5t460.5 136.5v90q0 61 -44 94t-123 33q-127 0 -222 -131l-164 125q49 85 165 141q115 57 227 54t190 -25.5t128 -72.5q97 -97 97 -333v-501q0 -97 21 -154h-248l-17 92q-78 -53 -154.5 -82.5t-162.5 -29.5t-140.5 23.5t-89.5 62.5 q-73 81 -73 196zM195 1221v237h245v-237h-245zM291 293q0 -59 34.5 -92t88.5 -33q100 0 233 113v229q-172 -33 -232 -60q-124 -57 -124 -157zM584 1221v237h245v-237h-245z" />
<glyph unicode="&#xe5;" horiz-adv-x="1024" d="M37 262q0 182 149.5 281.5t460.5 136.5v90q0 61 -44 94t-123 33q-127 0 -222 -131l-164 125q49 85 165 141q115 57 227 54t190 -25.5t128 -72.5q97 -97 97 -333v-501q0 -97 21 -154h-248l-17 92q-78 -53 -154.5 -82.5t-162.5 -29.5t-140.5 23.5t-89.5 62.5 q-73 81 -73 196zM291 293q0 -59 34.5 -92t88.5 -33q100 0 233 113v229q-172 -33 -232 -60q-124 -57 -124 -157zM291 1418q0 46 17.5 87t47.5 71q62 64 156 64t156 -64q65 -66 65 -157q0 -92 -64.5 -156.5t-156.5 -64.5t-156.5 64.5t-64.5 155.5zM401 1419q0 -47 32 -78.5 t79 -31.5t79 31.5t32 78.5t-32 79t-79 32t-79 -32t-32 -79z" />
<glyph unicode="&#xe6;" horiz-adv-x="1593" d="M37 262q0 182 150.5 281.5t467.5 136.5v90q0 61 -48 94t-127 33q-127 0 -222 -131l-164 125q49 85 165 141q115 57 233 53q223 -7 309 -114q109 115 289 114q210 0 332 -147q114 -137 114 -342v-104h-647v-107q0 -90 61.5 -145.5t156.5 -55.5t146.5 36t98.5 91l184 -114 q-74 -115 -183.5 -166t-262.5 -51q-104 0 -164 26q-117 52 -170 139q-198 -144 -343 -160q-44 -5 -101.5 -5t-112 23.5t-89.5 62.5q-73 81 -73 196zM291 291q0 -57 34.5 -90t88.5 -33q95 0 241 113v229q-172 -30 -236.5 -59t-96 -66t-31.5 -94zM889 664h414 q-4 111 -58.5 172t-148.5 61t-148.5 -61.5t-58.5 -171.5z" />
<glyph unicode="&#xe7;" horiz-adv-x="1024" d="M49 532q0 254 123 404q122 149 340 149q152 0 263.5 -74.5t156.5 -209.5l-211 -82q-31 68 -74 115t-142 47q-202 0 -202 -349q0 -180 52.5 -264t150.5 -84t149.5 49.5t89.5 120.5l193 -108q-68 -127 -155 -190.5t-208 -73.5l-75 -111q41 10 92 10t106.5 -37t55.5 -103 t-24.5 -103t-62.5 -60q-75 -47 -154 -47q-113 0 -243 53l37 86q86 -32 148.5 -32t90 16t27.5 63.5t-26.5 58.5t-61.5 11t-86 -12l-41 41l109 166q-197 16 -307 164q-111 147 -111 386z" />
<glyph unicode="&#xe8;" horiz-adv-x="1024" d="M49 532q0 254 123 404q122 149 340 149q202 0 322 -147q112 -138 112 -342v-104h-643q4 -166 67.5 -237t152.5 -71t140.5 36t98.5 91l184 -114q-74 -115 -183.5 -166t-238 -51t-212 38.5t-141.5 110.5q-122 151 -122 403zM170 1499h315l193 -299h-209zM303 664h410 q-4 111 -58.5 172t-146.5 61t-146.5 -61.5t-58.5 -171.5z" />
<glyph unicode="&#xe9;" horiz-adv-x="1024" d="M49 532q0 254 123 404q122 149 340 149q202 0 322 -147q112 -138 112 -342v-104h-643q4 -166 67.5 -237t152.5 -71t140.5 36t98.5 91l184 -114q-74 -115 -183.5 -166t-238 -51t-212 38.5t-141.5 110.5q-122 151 -122 403zM303 664h410q-4 111 -58.5 172t-146.5 61 t-146.5 -61.5t-58.5 -171.5zM346 1200l193 299h315l-299 -299h-209z" />
<glyph unicode="&#xea;" horiz-adv-x="1024" d="M49 532q0 254 123 404q122 149 340 149q202 0 322 -147q112 -138 112 -342v-104h-643q4 -166 67.5 -237t152.5 -71t140.5 36t98.5 91l184 -114q-74 -115 -183.5 -166t-238 -51t-212 38.5t-141.5 110.5q-122 151 -122 403zM152 1200l231 299h254l235 -299h-231l-129 168 l-131 -168h-229zM303 664h410q-4 111 -58.5 172t-146.5 61t-146.5 -61.5t-58.5 -171.5z" />
<glyph unicode="&#xeb;" horiz-adv-x="1024" d="M49 532q0 254 123 404q122 149 340 149q202 0 322 -147q112 -138 112 -342v-104h-643q4 -166 67.5 -237t152.5 -71t140.5 36t98.5 91l184 -114q-74 -115 -183.5 -166t-238 -51t-212 38.5t-141.5 110.5q-122 151 -122 403zM195 1221v237h245v-237h-245zM303 664h410 q-4 111 -58.5 172t-146.5 61t-146.5 -61.5t-58.5 -171.5zM584 1221v237h245v-237h-245z" />
<glyph unicode="&#xec;" horiz-adv-x="569" d="M-53 1499h315l193 -299h-209zM158 0v1065h254v-1065h-254z" />
<glyph unicode="&#xed;" horiz-adv-x="569" d="M123 1200l192 299h316l-299 -299h-209zM158 0v1065h254v-1065h-254z" />
<glyph unicode="&#xee;" horiz-adv-x="569" d="M-72 1200l232 299h254l235 -299h-231l-129 168l-131 -168h-230zM158 0v1065h254v-1065h-254z" />
<glyph unicode="&#xef;" horiz-adv-x="569" d="M-29 1221v237h246v-237h-246zM158 0v1065h254v-1065h-254zM360 1221v237h246v-237h-246z" />
<glyph unicode="&#xf0;" horiz-adv-x="1024" d="M49 500q0 230 123 374q124 146 340 146q41 0 86 -10q-26 67 -86 151l-209 -100l-74 131l187 90q-49 55 -133 127l221 70q65 -48 114 -99l205 99l74 -131l-180 -88q186 -253 241 -564q17 -100 17 -205.5t-32 -200.5t-91 -165q-122 -145 -340 -145t-340 145 q-123 146 -123 375zM303 500q0 -316 209 -316t209 316q0 315 -209 315t-209 -315z" />
<glyph unicode="&#xf1;" horiz-adv-x="1138" d="M131 0v1065h234v-115q72 49 152.5 92t174.5 43q160 0 238 -96t78 -260v-729h-254v692q0 109 -33 149t-107.5 40t-135 -38t-93.5 -75v-768h-254zM184 1217q21 163 141 227q40 22 87 22t88 -12t78 -26q101 -37 132.5 -37t57 26.5t33.5 61.5h133q-24 -113 -60 -160 t-74 -68.5t-85 -21.5t-87 11t-79 24q-103 36 -143.5 36t-61 -24.5t-33.5 -58.5h-127z" />
<glyph unicode="&#xf2;" horiz-adv-x="1024" d="M49 532q0 254 123 404q122 149 340 149t340 -149q123 -150 123 -404q0 -253 -123 -403q-122 -149 -340 -149t-340 149q-123 150 -123 403zM164 1499h315l193 -299h-209zM303 532q0 -180 51.5 -264t157.5 -84t157.5 84t51.5 264t-51.5 264.5t-157.5 84.5t-157.5 -84 t-51.5 -265z" />
<glyph unicode="&#xf3;" horiz-adv-x="1024" d="M49 532q0 254 123 404q122 149 340 149t340 -149q123 -150 123 -404q0 -253 -123 -403q-122 -149 -340 -149t-340 149q-123 150 -123 403zM303 532q0 -180 51.5 -264t157.5 -84t157.5 84t51.5 264t-51.5 264.5t-157.5 84.5t-157.5 -84t-51.5 -265zM340 1200l192 299h316 l-299 -299h-209z" />
<glyph unicode="&#xf4;" horiz-adv-x="1024" d="M49 532q0 254 123 404q122 149 340 149t340 -149q123 -150 123 -404q0 -253 -123 -403q-122 -149 -340 -149t-340 149q-123 150 -123 403zM145 1200l232 299h254l235 -299h-231l-129 168l-131 -168h-230zM303 532q0 -180 51.5 -264t157.5 -84t157.5 84t51.5 264 t-51.5 264.5t-157.5 84.5t-157.5 -84t-51.5 -265z" />
<glyph unicode="&#xf5;" horiz-adv-x="1024" d="M49 532q0 254 123 404q122 149 340 149t340 -149q123 -150 123 -404q0 -253 -123 -403q-122 -149 -340 -149t-340 149q-123 150 -123 403zM131 1217q21 163 140 227q40 22 87.5 22t88 -12t77.5 -26q103 -37 133.5 -37t56 26.5t34.5 61.5h133q-24 -114 -60.5 -160.5 t-74 -68t-85 -21.5t-87 11t-78.5 24q-103 36 -144 36t-61.5 -24.5t-32.5 -58.5h-127zM303 532q0 -180 51.5 -264t157.5 -84t157.5 84t51.5 264t-51.5 264.5t-157.5 84.5t-157.5 -84t-51.5 -265z" />
<glyph unicode="&#xf6;" horiz-adv-x="1024" d="M49 532q0 254 123 404q122 149 340 149t340 -149q123 -150 123 -404q0 -253 -123 -403q-122 -149 -340 -149t-340 149q-123 150 -123 403zM188 1221v237h246v-237h-246zM303 532q0 -180 51.5 -264t157.5 -84t157.5 84t51.5 264t-51.5 264.5t-157.5 84.5t-157.5 -84 t-51.5 -265zM578 1221v237h245v-237h-245z" />
<glyph unicode="&#xf7;" horiz-adv-x="1228" d="M82 422v221h1065v-221h-1065zM434 143q0 68 54 125q53 58 124 58q75 0 130 -58q55 -56 55 -126q0 -34 -14.5 -65.5t-40.5 -56.5q-56 -57 -130 -57q-70 0 -124 57q-54 55 -54 123zM434 920q0 67 54 124q53 58 124 58q75 0 130 -58q55 -56 55 -125q0 -34 -14.5 -66 t-40.5 -57q-56 -57 -130 -57q-70 0 -124 57q-54 55 -54 124z" />
<glyph unicode="&#xf8;" horiz-adv-x="1024" d="M20 -205l173 314q-143 150 -144 423q0 254 123 404q122 149 340 149q111 0 197 -41l114 209h187l-168 -305q133 -145 133 -416q0 -253 -123 -403q-122 -149 -340 -149q-98 0 -184 34l-121 -219h-187zM303 566q0 -147 21 -220l282 512q-41 23 -94 23q-106 0 -157.5 -84 t-51.5 -231zM430 201q37 -16 82 -17q106 0 157.5 84t51.5 264q0 100 -16 168z" />
<glyph unicode="&#xf9;" horiz-adv-x="1138" d="M131 336v729h254v-692q0 -109 33 -149t107.5 -40t135 38t93.5 75v768h254v-1065h-234v115q-72 -49 -152.5 -92t-175.5 -43q-160 0 -237.5 96t-77.5 260zM227 1499h316l192 -299h-209z" />
<glyph unicode="&#xfa;" horiz-adv-x="1138" d="M131 336v729h254v-692q0 -109 33 -149t107.5 -40t135 38t93.5 75v768h254v-1065h-234v115q-72 -49 -152.5 -92t-175.5 -43q-160 0 -237.5 96t-77.5 260zM403 1200l193 299h315l-299 -299h-209z" />
<glyph unicode="&#xfb;" horiz-adv-x="1138" d="M131 336v729h254v-692q0 -109 33 -149t107.5 -40t135 38t93.5 75v768h254v-1065h-234v115q-72 -49 -152.5 -92t-175.5 -43q-160 0 -237.5 96t-77.5 260zM209 1200l231 299h254l236 -299h-232l-129 168l-131 -168h-229z" />
<glyph unicode="&#xfc;" horiz-adv-x="1138" d="M131 336v729h254v-692q0 -109 33 -149t107.5 -40t135 38t93.5 75v768h254v-1065h-234v115q-72 -49 -152.5 -92t-175.5 -43q-160 0 -237.5 96t-77.5 260zM252 1221v237h246v-237h-246zM641 1221v237h246v-237h-246z" />
<glyph unicode="&#xfd;" horiz-adv-x="909" d="M18 1065h256l177 -655h4l182 655h254l-336 -1067q-86 -229 -170 -308t-242 -79q-77 0 -123 8v209q39 -8 106 -8t106.5 19.5t60 61.5t32 68.5t11.5 57.5t-11.5 63.5t-21.5 65.5zM289 1200l192 299h316l-299 -299h-209z" />
<glyph unicode="&#xfe;" horiz-adv-x="1138" d="M131 -389v1868h244v-512q122 118 272 118q205 0 319 -165q107 -155 107 -416q0 -213 -109 -360q-122 -164 -317 -164q-64 0 -121 24q-95 42 -137 94h-4v-487h-254zM385 274q100 -90 206 -90t167 89t61 259t-61.5 259.5t-175.5 89.5q-98 0 -159 -63q-17 -17 -38 -32v-512z " />
<glyph unicode="&#xff;" horiz-adv-x="909" d="M18 1065h256l177 -655h4l182 655h254l-336 -1067q-86 -229 -170 -308t-242 -79q-77 0 -123 8v209q39 -8 106 -8t106.5 19.5t60 61.5t32 68.5t11.5 57.5t-11.5 63.5t-21.5 65.5zM137 1221v237h246v-237h-246zM526 1221v237h246v-237h-246z" />
<glyph unicode="&#x152;" horiz-adv-x="1933" d="M27 739q0 381 157 565q165 195 516 195q48 0 150 -10q103 -10 174 -10h825v-238h-626v-352h442v-238h-442v-413h661v-238h-825q-65 0 -178 -10t-181 -10q-521 0 -636 432q-37 141 -37 327zM309 739q0 -436 213 -503q62 -19 135.5 -19t128 14.5t88.5 50.5q66 70 66 263 v389q0 192 -66 262q-61 66 -219 66q-163 0 -245 -96q-101 -118 -101 -427z" />
<glyph unicode="&#x153;" horiz-adv-x="1593" d="M25 532q0 254 121 404q122 149 329 149q222 0 330 -137q109 137 301 137q198 0 318 -147q112 -138 112 -342v-104h-623q4 -166 57.5 -237t168.5 -71q72 0 119 36t94 91l184 -114q-140 -217 -414 -217q-200 0 -313 141q-108 -141 -334 -141q-207 0 -329 149 q-121 150 -121 403zM279 532q0 -348 200 -348q201 0 201 348q0 349 -201 349q-200 0 -200 -349zM913 664h390q-4 111 -56.5 172t-138.5 61t-138 -61.5t-57 -171.5z" />
<glyph unicode="&#x178;" horiz-adv-x="1138" d="M20 1479h295l254 -586l254 586h295l-407 -889v-590h-283v590zM252 1581v238h246v-238h-246zM641 1581v238h246v-238h-246z" />
<glyph unicode="&#x2c6;" horiz-adv-x="569" d="M-76 1200l232 299h254l235 -299h-231l-129 168l-131 -168h-230z" />
<glyph unicode="&#x2dc;" horiz-adv-x="569" d="M-90 1217q21 163 140 227q40 22 87 22t88 -12t78 -26q103 -37 133.5 -37t56 26.5t33.5 61.5h133q-24 -113 -60 -160t-74 -68.5t-85 -21.5t-87 11t-79 24q-101 36 -142.5 36t-62 -24.5t-32.5 -58.5h-127z" />
<glyph unicode="&#x2000;" horiz-adv-x="1000" />
<glyph unicode="&#x2001;" horiz-adv-x="2001" />
<glyph unicode="&#x2002;" horiz-adv-x="1000" />
<glyph unicode="&#x2003;" horiz-adv-x="2001" />
<glyph unicode="&#x2004;" horiz-adv-x="667" />
<glyph unicode="&#x2005;" horiz-adv-x="500" />
<glyph unicode="&#x2006;" horiz-adv-x="333" />
<glyph unicode="&#x2007;" horiz-adv-x="333" />
<glyph unicode="&#x2008;" horiz-adv-x="250" />
<glyph unicode="&#x2009;" horiz-adv-x="400" />
<glyph unicode="&#x200a;" horiz-adv-x="111" />
<glyph unicode="&#x2010;" horiz-adv-x="681" d="M90 422v221h502v-221h-502z" />
<glyph unicode="&#x2011;" horiz-adv-x="681" d="M90 422v221h502v-221h-502z" />
<glyph unicode="&#x2012;" horiz-adv-x="681" d="M90 422v221h502v-221h-502z" />
<glyph unicode="&#x2013;" horiz-adv-x="1024" d="M0 446v172h1024v-172h-1024z" />
<glyph unicode="&#x2014;" horiz-adv-x="2048" d="M0 446v172h2048v-172h-2048z" />
<glyph unicode="&#x2018;" horiz-adv-x="569" d="M143 901v291l131 307h134l-105 -307h123v-291h-283z" />
<glyph unicode="&#x2019;" horiz-adv-x="569" d="M143 1188v291h283v-291l-131 -307h-133l104 307h-123z" />
<glyph unicode="&#x201a;" horiz-adv-x="569" d="M143 0v291h283v-291l-131 -307h-133l104 307h-123z" />
<glyph unicode="&#x201c;" horiz-adv-x="909" d="M86 901v291l131 307h133l-104 -307h123v-291h-283zM543 901v291l131 307h133l-105 -307h123v-291h-282z" />
<glyph unicode="&#x201d;" horiz-adv-x="909" d="M84 1188v291h283v-291l-131 -307h-134l105 307h-123zM541 1188v291h282v-291l-131 -307h-133l105 307h-123z" />
<glyph unicode="&#x201e;" horiz-adv-x="909" d="M84 0v291h283v-291l-131 -307h-134l105 307h-123zM541 0v291h282v-291l-131 -307h-133l105 307h-123z" />
<glyph unicode="&#x2022;" horiz-adv-x="1024" d="M141 738q0 77 29 144.5t79 117.5q106 108 261 108q153 0 262 -108q109 -107 109 -261q0 -153 -109 -262q-108 -108 -262 -108q-155 0 -261 108q-108 110 -108 261z" />
<glyph unicode="&#x2026;" horiz-adv-x="2048" d="M197 0v291h290v-291h-290zM879 0v291h290v-291h-290zM1561 0v291h290v-291h-290z" />
<glyph unicode="&#x202f;" horiz-adv-x="400" />
<glyph unicode="&#x2039;" horiz-adv-x="681" d="M84 526l246 334h229l-252 -334l252 -321h-229z" />
<glyph unicode="&#x203a;" horiz-adv-x="681" d="M123 205l252 321l-252 334h229l246 -334l-246 -321h-229z" />
<glyph unicode="&#x205f;" horiz-adv-x="500" />
<glyph unicode="&#x20ac;" d="M66 459l53 192h102q-2 23 -2 45v95h-153l51 192h123q47 250 194.5 383t380.5 133q237 0 379 -133l-70 -252q-74 78 -145.5 117t-177 39t-182 -72t-111.5 -215h582l-54 -192h-553v-140h514l-51 -192h-436q29 -111 101.5 -180.5t215.5 -69.5q188 0 297 96v-256 q-130 -69 -279 -69t-246 35.5t-167 98.5q-133 121 -184 345h-182z" />
<glyph unicode="&#x2122;" horiz-adv-x="2048" d="M45 1307v172h698v-172h-247v-672h-205v672h-246zM911 635v844h306l190 -529h4l188 529h306v-844h-205v575l-8 4l-205 -579h-158l-205 577h-8v-577h-205z" />
<glyph unicode="&#xe000;" horiz-adv-x="1064" d="M0 0v1065h1065v-1065h-1065z" />
</font>
</defs>
</svg>
