<?xml version="1.0" standalone="no"?>
<!DOCTYPE svg PUBLIC "-//W3C//DTD SVG 1.1//EN" "http://www.w3.org/Graphics/SVG/1.1/DTD/svg11.dtd" >
<svg xmlns="http://www.w3.org/2000/svg">
<metadata></metadata>
<defs>
<font id="TradeGothicOblique" horiz-adv-x="1024" >
<font-face units-per-em="2048" ascent="1638" descent="-410" />
<missing-glyph horiz-adv-x="624" />
<glyph horiz-adv-x="0" />
<glyph horiz-adv-x="2048" />
<glyph unicode="&#xd;" horiz-adv-x="624" />
<glyph unicode=" "  horiz-adv-x="624" />
<glyph unicode="&#x09;" horiz-adv-x="624" />
<glyph unicode="&#xa0;" horiz-adv-x="624" />
<glyph unicode="!" horiz-adv-x="681" d="M231 1479h218l-43 -1012h-132zM240 0v225h200v-225h-200z" />
<glyph unicode="&#x22;" horiz-adv-x="681" d="M156 926v553h127v-553h-127zM399 926v553h127v-553h-127z" />
<glyph unicode="#" horiz-adv-x="1251" d="M125 471v115h219l41 311h-203v115h219l64 467h127l-64 -467h279l61 467h127l-61 -467h192v-115h-208l-44 -311h195v-115h-211l-63 -471h-127l63 471h-276l-64 -471h-127l64 471h-203zM471 586h277l43 311h-279z" />
<glyph unicode="$" horiz-adv-x="1251" d="M113 268l118 90q95 -141 230 -206q49 -23 102 -25v571q-261 57 -369 230q-44 71 -44 169.5t34.5 170t93.5 118.5q117 93 285 93v157h139v-157q111 -7 226 -85q95 -65 153 -157l-106 -86q-45 74 -117 129t-156 72v-535q237 -78 325 -161q110 -102 110 -267 q0 -168 -129 -281q-126 -108 -306 -108v-254h-139v254q-193 5 -364 176q-47 47 -86 92zM297 1126q0 -120 84 -193q63 -55 182 -79v498q-121 4 -197 -60q-73 -63 -69 -166zM702 127q111 4 198 73q89 70 89 177q0 169 -183 245q-52 21 -104 37v-532z" />
<glyph unicode="%" horiz-adv-x="1820" d="M123 1139q0 143 99 242q98 98 243 98t243 -98q99 -99 99 -242q0 -144 -99 -243q-97 -97 -243 -97t-243 97q-99 99 -99 243zM250 1139q0 -96 61.5 -154.5t153.5 -58.5t153.5 58t61.5 155q0 96 -61.5 154.5t-153.5 58.5t-153.5 -58.5t-61.5 -154.5zM424 -20l850 1519h121 l-850 -1519h-121zM1014 340q0 144 99 243q97 97 243 97q144 0 242 -97q100 -98 100 -243t-100 -243q-98 -97 -242 -97q-146 0 -243 97q-99 99 -99 243zM1141 340q0 -96 61.5 -154.5t153.5 -58.5t153.5 58.5t61.5 154.5t-61.5 154.5t-153.5 58.5t-153.5 -58.5t-61.5 -154.5z " />
<glyph unicode="&#x26;" horiz-adv-x="1366" d="M90 403q0 248 322 447q-75 108 -107 261q-10 48 -10 102t22.5 107.5t65.5 93.5q91 85 244 85q130 0 215 -71q88 -75 88 -203q0 -157 -206 -325q-54 -44 -106 -81q112 -201 334 -446q35 47 74 150.5t59 221.5l136 -32q-32 -185 -114 -349q-26 -53 -52 -92q77 -77 191 -114 q32 -11 52 -11v-147h-53q-89 0 -219 90q-39 27 -72 57q-154 -167 -422 -167q-180 0 -306 114q-136 123 -136 309zM254 393q0 -133 96 -207q85 -67 193 -67q188 0 309 123q-229 262 -373 495q-109 -70 -148 -122q-77 -101 -77 -222zM459 1195q0 -34 9 -71t22 -72 q23 -63 55 -118q144 92 201 205q20 41 20 97.5t-46 96t-94.5 39.5t-78 -15.5t-50 -40t-29.5 -56t-9 -65.5z" />
<glyph unicode="'" horiz-adv-x="454" d="M164 926v553h127v-553h-127z" />
<glyph unicode="(" horiz-adv-x="681" d="M135 666.5q0 459.5 281 832.5h159q-223 -295 -274 -609q-18 -110 -18 -233q0 -236 77.5 -437.5t212.5 -391.5h-151q-287 379 -287 838.5z" />
<glyph unicode=")" horiz-adv-x="681" d="M106 -172q222 294 274 608q19 111 19 234q0 236 -77.5 437.5t-212.5 391.5h151q287 -379 287 -838.5t-281 -832.5h-160z" />
<glyph unicode="*" d="M152 1161l36 133l281 -133l12 8l-45 310h137l-36 -305l14 -13l270 142l51 -138l-305 -63l-6 -17l217 -217l-110 -86l-150 275h-16l-150 -271l-106 80l213 234l-4 14z" />
<glyph unicode="+" horiz-adv-x="1228" d="M82 469v127h469v469h127v-469h469v-127h-469v-469h-127v469h-469z" />
<glyph unicode="," horiz-adv-x="624" d="M197 -303l96 303h-82v225h201v-225l-129 -303h-86z" />
<glyph unicode="-" horiz-adv-x="681" d="M82 469v127h516v-127h-516z" />
<glyph unicode="." horiz-adv-x="624" d="M211 0v225h201v-225h-201z" />
<glyph unicode="/" horiz-adv-x="569" d="M-16 -20l477 1519h125l-480 -1519h-122z" />
<glyph unicode="0" horiz-adv-x="1251" d="M102 739q0 577 306 716q96 44 217 44q378 0 485 -415q37 -144 37 -345q0 -576 -305 -715q-97 -44 -217 -44q-379 0 -486 415q-37 143 -37 344zM258 739q0 -336 93 -484.5t274 -148.5q180 0 273 148.5t93 484.5t-93 484.5t-273 148.5t-273.5 -148.5t-93.5 -484.5z" />
<glyph unicode="1" horiz-adv-x="1251" d="M289 1300v97q78 23 156.5 47t127.5 55h148v-1372h252v-127h-656v127h256v1202z" />
<glyph unicode="2" horiz-adv-x="1251" d="M135 0v156q63 129 148.5 222t174.5 164.5t176 131t156 120.5q152 137 152 308q0 129 -79 199.5t-220 70.5q-148 0 -246 -105q-84 -89 -102 -216l-145 32q44 187 142 285q129 131 355 131q191 0 315 -101q136 -110 136 -292q0 -113 -49.5 -201t-125 -162.5t-168.5 -142.5 t-183.5 -139.5t-165 -152.5t-115.5 -181h805v-127h-961z" />
<glyph unicode="3" horiz-adv-x="1251" d="M70 270l118 82q184 -246 406 -246q164 0 256 77t92 221.5t-98.5 232.5t-319.5 88h-145v127h88q223 0 322.5 69.5t99.5 206.5q0 108 -82 178q-78 66 -189 66q-173 0 -284 -120q-35 -38 -72 -85l-121 82q87 120 187 177q127 73 308 73t294.5 -96t113.5 -273 q0 -179 -145 -282q-41 -29 -84 -45q283 -113 283 -393q0 -191 -136 -310q-137 -120 -368 -120q-187 0 -342 102q-113 74 -182 188z" />
<glyph unicode="4" horiz-adv-x="1251" d="M78 348v127l610 1004h217v-1004h254v-127h-254v-348h-147v348h-680zM233 475h525v848h-6z" />
<glyph unicode="5" horiz-adv-x="1251" d="M147 262l134 70q53 -100 139 -163t181.5 -63t158.5 23t112 70q103 100 103 301q0 165 -90 268q-91 104 -242 104q-109 0 -187.5 -59t-123.5 -164l-129 29l65 801h758v-127h-635l-37 -473q131 120 303 120q196 0 329 -125q144 -135 144 -374q0 -203 -114 -346 q-141 -174 -398 -174q-249 0 -394 178q-42 51 -77 104z" />
<glyph unicode="6" horiz-adv-x="1251" d="M123 656.5q0 181.5 39 334t116 265.5q163 243 451 243q121 0 204 -27.5t116 -58.5l-64 -125q-104 84 -252 84q-188 0 -313 -150q-137 -162 -141 -468q77 81 142 114q124 62 263 62q176 0 306 -118q138 -127 138 -357q0 -227 -146 -357q-133 -118 -331 -118 q-381 0 -489 364q-39 131 -39 312.5zM283 487q4 -159 101 -269q99 -112 255 -112q154 0 246 98q88 94 88 252q0 81 -26.5 146.5t-69.5 110.5q-86 90 -213 90q-138 0 -254 -94q-119 -95 -127 -222z" />
<glyph unicode="7" horiz-adv-x="1251" d="M152 1352v127h938v-90l-625 -1389h-172l608 1352h-749z" />
<glyph unicode="8" horiz-adv-x="1251" d="M86 385q0 131 95 241q81 93 229 160v5q-123 47 -193 135t-70 191t36 173t101 116q130 93 341 93q210 0 341 -93q136 -97 136 -276q0 -117 -69.5 -204.5t-192.5 -134.5v-5q225 -85 298 -262q25 -63 25 -143t-32.5 -153.5t-100.5 -129.5q-144 -118 -405 -118t-405 118 q-134 110 -134 287zM242 392q0 -56 22.5 -106t68.5 -90q103 -90 292 -90q187 0 291 90q92 79 92 189q0 172 -247 275q-75 32 -163 61q-177 -75 -236 -123.5t-89.5 -99t-30.5 -106.5zM303 1140q0 -60 33 -107.5t82 -83.5q85 -62 207 -95q131 30 222 104q99 79 99 185 q0 57 -27.5 101t-72.5 73q-85 55 -221 55q-214 0 -295 -128q-27 -44 -27 -104z" />
<glyph unicode="9" horiz-adv-x="1251" d="M123 1024q0 225 147 356q132 119 330 119q528 0 528 -684q0 -365 -154 -593q-165 -242 -452 -242q-121 0 -203.5 27.5t-115.5 58.5l63 124q104 -84 252 -84q184 0 308 156q136 173 147 463q-85 -85 -147 -116q-120 -60 -231.5 -60t-190 29.5t-142.5 87.5 q-139 129 -139 358zM279 1023q0 -81 26.5 -146.5t69.5 -110.5q86 -90 217 -90t230.5 79t142.5 195q-4 194 -98 308q-95 114 -255 114q-154 0 -245 -97q-88 -94 -88 -252z" />
<glyph unicode=":" horiz-adv-x="624" d="M211 0v225h201v-225h-201zM211 594v225h201v-225h-201z" />
<glyph unicode=";" horiz-adv-x="624" d="M197 -303l96 303h-82v225h201v-225l-129 -303h-86zM211 594v225h201v-225h-201z" />
<glyph unicode="&#x3c;" horiz-adv-x="1228" d="M94 475v115l1041 475v-127l-893 -406l893 -405v-127z" />
<glyph unicode="=" horiz-adv-x="1228" d="M82 260v127h1065v-127h-1065zM82 678v127h1065v-127h-1065z" />
<glyph unicode="&#x3e;" horiz-adv-x="1228" d="M94 0v127l893 405l-893 406v127l1041 -473v-119z" />
<glyph unicode="?" horiz-adv-x="909" d="M109 1274q51 111 137 168t196 57q138 0 231 -81q101 -88 101 -230q0 -113 -84 -226q-37 -49 -78 -93t-78 -89q-83 -103 -83 -198v-115h-140v113q0 171 154 333q95 100 124 161t29 107t-9 77.5t-31 55.5q-50 58 -127 58t-126 -36t-94 -122zM276 0v225h201v-225h-201z" />
<glyph unicode="@" horiz-adv-x="1638" d="M90 735q0 160 60.5 300.5t164 242.5t241.5 161.5t286.5 59.5t275.5 -46t222 -129q208 -180 208 -454q0 -269 -166 -441q-71 -73 -153 -107.5t-147.5 -34.5t-104.5 36.5t-43 90.5l-4 -2q-43 -47 -107.5 -86t-133.5 -39t-123 25.5t-94 69.5q-83 91 -83 210.5t34 220 t93 179.5t143 128t176.5 49t154 -35.5t100.5 -121.5l40 123h138l-164 -564q-21 -76 -21 -100q0 -51 45 -51q111 0 202 140q87 133 87 273t-45 236t-123 163q-160 136 -399 136q-265 0 -440 -184q-172 -180 -172 -451q0 -268 179 -447q175 -175 433 -175q154 0 287 56 t219 165h155q-94 -169 -278 -263q-174 -89 -357.5 -89t-322.5 58t-241.5 160.5t-162 239.5t-59.5 297zM553 616.5q0 -75.5 34 -131t104.5 -55.5t132 40t105.5 102q95 132 95 266q0 88 -48 144q-37 44 -105 44t-127.5 -39t-102.5 -97.5t-65.5 -128t-22.5 -145z" />
<glyph unicode="A" horiz-adv-x="1251" d="M49 0l455 1479h244l454 -1479h-172l-139 463h-531l-139 -463h-172zM401 602h449l-213 762h-23z" />
<glyph unicode="B" horiz-adv-x="1366" d="M221 0v1479h545q187 0 303 -107q111 -103 111 -242t-57.5 -224t-192.5 -132l2 -4q127 -33 204 -133q81 -104 81 -240q0 -283 -285 -367q-103 -30 -252 -30h-459zM385 139h307q182 0 271.5 63.5t89.5 204t-104.5 219.5t-280.5 79h-283v-566zM385 844h287q172 0 265 78 q79 67 79 174q0 243 -277 243h-2h-352v-495z" />
<glyph unicode="C" horiz-adv-x="1251" d="M86 739q0 361 148 561q149 199 417 199q397 0 500 -430l-152 -45q-43 169 -120 246q-90 90 -248 90q-169 0 -271 -150q-110 -165 -110 -471q0 -463 246 -583q75 -37 168 -37q277 0 360 352l147 -29q-113 -462 -520 -462q-258 0 -407 185q-158 198 -158 574z" />
<glyph unicode="D" horiz-adv-x="1366" d="M205 0v1479h397q308 0 484 -188q184 -195 184 -552q0 -336 -172 -532q-182 -207 -504 -207h-389zM369 139h221q516 0 516 600q0 308 -140 462q-126 138 -368 138h-229v-1200z" />
<glyph unicode="E" horiz-adv-x="1251" d="M221 0v1479h887v-140h-723v-495h514v-139h-514v-566h764v-139h-928z" />
<glyph unicode="F" horiz-adv-x="1138" d="M205 0v1479h876v-140h-712v-495h528v-139h-528v-705h-164z" />
<glyph unicode="G" horiz-adv-x="1366" d="M98 739q0 378 163 575q153 185 415 185q408 0 532 -434l-155 -31q-55 178 -147.5 252t-221.5 74q-288 0 -386 -324q-36 -118 -36 -297q0 -326 130 -487q109 -133 292 -133q173 0 267 96q87 89 87 231v125h-333v140h497v-711h-135v135h-4q-57 -78 -160.5 -116.5 t-228.5 -38.5t-230.5 46t-182.5 139q-163 197 -163 574z" />
<glyph unicode="H" horiz-adv-x="1478" d="M221 0v1479h164v-635h709v635h163v-1479h-163v705h-709v-705h-164z" />
<glyph unicode="I" horiz-adv-x="681" d="M258 0v1479h164v-1479h-164z" />
<glyph unicode="J" horiz-adv-x="909" d="M16 170l123 80q35 -57 93.5 -94t131 -37t125 46t52.5 173v1141h164v-1098q0 -211 -87.5 -306t-252.5 -95q-171 0 -286 118q-34 35 -63 72z" />
<glyph unicode="K" horiz-adv-x="1366" d="M238 0v1479h163v-768h5l612 768h194l-458 -557l514 -922h-187l-440 786l-240 -290v-496h-163z" />
<glyph unicode="L" horiz-adv-x="1138" d="M221 0v1479h164v-1340h700v-139h-864z" />
<glyph unicode="M" horiz-adv-x="1705" d="M221 0v1479h254l377 -1196h4l371 1196h258v-1479h-148v1352h-6l-413 -1352h-127l-416 1352h-6v-1352h-148z" />
<glyph unicode="N" horiz-adv-x="1478" d="M221 0v1479h236l645 -1139h8v1139h147v-1479h-135l-749 1319h-4v-1319h-148z" />
<glyph unicode="O" horiz-adv-x="1366" d="M104 739q0 373 152 566.5t426 193.5t426 -193.5t152 -566.5t-152 -566t-426 -193t-426 193t-152 566zM268 739q0 -315 109.5 -467.5t304.5 -152.5t304.5 152.5t109.5 467.5t-109.5 468t-304.5 153t-304.5 -153t-109.5 -468z" />
<glyph unicode="P" horiz-adv-x="1251" d="M205 0v1479h516q225 0 344 -119q109 -109 109 -294t-132.5 -296t-410.5 -111h-262v-659h-164zM369 799h278q289 0 345 153q18 52 18 117q0 270 -326 270h-315v-540z" />
<glyph unicode="Q" horiz-adv-x="1366" d="M104 739q0 373 152 566.5t426 193.5t426 -193.5t152 -563t-152 -566.5q39 -72 92 -103.5t131 -31.5v-160q-179 0 -268 110q-29 36 -59 85q-131 -96 -322 -96q-274 0 -426 193.5t-152 565.5zM268 739q0 -315 109.5 -467.5t304.5 -152.5q143 0 240 82q-37 55 -76 82.5 t-105 38.5v157q100 -14 164 -47t113 -104q78 150 78 438t-109.5 441t-304.5 153t-304.5 -152.5t-109.5 -468.5z" />
<glyph unicode="R" horiz-adv-x="1366" d="M205 0v1479h475q242 0 368 -101.5t126 -273.5t-82 -264t-213 -135l313 -705h-178l-299 672h-346v-672h-164zM369 811h297q170 0 257 64.5t87 205.5q0 208 -204 246q-63 12 -142 12h-295v-528z" />
<glyph unicode="S" horiz-adv-x="1251" d="M102 365l150 53q117 -299 387 -299q164 0 245 75.5t81 180t-61.5 163t-154 101.5t-201 79t-200.5 86t-153.5 123.5t-61.5 172t32 168t90 120.5q124 111 311 111q382 0 499 -364l-147 -33q-47 177 -216 238q-57 20 -129 20q-129 0 -201.5 -59.5t-74.5 -170.5 q0 -106 128 -181q58 -34 133 -62.5t152.5 -58t153.5 -64.5t134 -83q130 -106 130 -267q0 -294 -260 -396q-96 -38 -227 -38t-218 35.5t-149 90.5q-97 89 -172 259z" />
<glyph unicode="T" horiz-adv-x="1138" d="M45 1339v140h1049v-140h-443v-1339h-164v1339h-442z" />
<glyph unicode="U" horiz-adv-x="1478" d="M221 446v1033h164v-1045q0 -137 90 -223q96 -92 264 -92q167 0 265 92q90 86 90 223v1045h163v-1033q0 -219 -144 -344q-142 -122 -374 -122t-373 122q-145 126 -145 344z" />
<glyph unicode="V" horiz-adv-x="1138" d="M37 1479h164l364 -1213h4l367 1213h166l-459 -1479h-149z" />
<glyph unicode="W" horiz-adv-x="1705" d="M57 1479h156l274 -1180h5l286 1180h146l295 -1180h4l270 1180h156l-351 -1479h-145l-303 1196h-4l-287 -1196h-145z" />
<glyph unicode="X" horiz-adv-x="1138" d="M29 0l442 772l-414 707h189l317 -543l311 543h189l-404 -707l451 -772h-188l-357 610l-348 -610h-188z" />
<glyph unicode="Y" horiz-adv-x="1138" d="M33 1479h180l356 -678l357 678h180l-455 -856v-623h-164v623z" />
<glyph unicode="Z" horiz-adv-x="1138" d="M92 0v119l742 1220h-674v140h878v-107l-753 -1233h762v-139h-955z" />
<glyph unicode="[" horiz-adv-x="681" d="M156 -152v1631h417v-86h-270v-1459h270v-86h-417z" />
<glyph unicode="\" horiz-adv-x="569" d="M-16 1499h125l477 -1519h-123z" />
<glyph unicode="]" horiz-adv-x="681" d="M109 -66h270v1459h-270v86h417v-1631h-417v86z" />
<glyph unicode="^" horiz-adv-x="1228" d="M96 571l459 908h119l459 -908h-129l-392 768l-385 -768h-131z" />
<glyph unicode="_" d="M0 -154h1024v-102h-1024v102z" />
<glyph unicode="`" horiz-adv-x="569" d="M12 1479h224l182 -291h-137z" />
<glyph unicode="a" d="M86 279.5q0 80.5 35 147.5t113 119q147 99 503 161v57q0 194 -219 194q-162 0 -240 -109q-22 -30 -32 -56l-129 67q51 92 149.5 158.5t249.5 66.5q243 0 336 -171q33 -60 33 -148v-537q0 -131 24 -229h-151l-17 147q-55 -61 -143 -114t-209 -53q-205 0 -279 164 q-24 55 -24 135.5zM233 270q0 -69 57 -120q51 -44 105 -44t99 13.5t88 38.5q92 52 155 125v292q-504 -88 -504 -305z" />
<glyph unicode="b" horiz-adv-x="1138" d="M172 0q9 54 9 106v10q-1 58 -1 117v1246h148v-516l8 4q141 118 280 118q68 0 144 -28.5t138 -92.5q146 -151 146 -432q0 -289 -146 -436q-117 -116 -290 -116q-96 0 -168.5 36.5t-138.5 96.5l-27 -113h-102zM328 250q78 -78 137 -111t131 -33q139 0 220 106.5t81 311.5 q0 338 -183 412q-55 22 -119.5 22t-136 -40.5t-130.5 -106.5v-561z" />
<glyph unicode="c" d="M82 532q0 256 118 406q115 147 318 147q221 0 331 -173q34 -54 58 -115l-137 -49q-66 210 -252 210q-137 0 -213 -110.5t-76 -315.5t76 -315.5t213 -110.5q101 0 151 32t80.5 70t61.5 95l119 -53q-90 -150 -167 -204q-93 -66 -219 -66t-207 37.5t-137 109.5 q-118 150 -118 405z" />
<glyph unicode="d" horiz-adv-x="1138" d="M94 532q0 280 146 432q63 64 139 92.5t147 28.5q134 0 277 -118l8 -4v516h147v-1246q0 -59 -1 -117v-9q0 -53 10 -107h-136l-20 104q-37 -51 -110.5 -87.5t-158 -36.5t-161 26.5t-139.5 89.5q-148 148 -148 436zM242 524q0 -205 80.5 -311.5t220.5 -106.5q72 0 131 33 t137 111v561q-59 66 -131 106.5t-137 40.5q-301 0 -301 -434z" />
<glyph unicode="e" d="M82 532q0 258 118 406q118 147 316 147q177 0 284 -113q122 -129 122 -370v-98h-693q0 -174 93 -286t223 -112q194 0 295 181l114 -60q-70 -117 -129 -160q-117 -87 -280 -87q-196 0 -321 130q-142 150 -142 422zM233 631h541q0 147 -66.5 237t-194.5 90t-198.5 -90 t-81.5 -237z" />
<glyph unicode="f" horiz-adv-x="681" d="M55 938v127h181v121q0 262 145 300q49 13 106 13t140 -10v-131q-94 14 -107 14q-76 0 -106.5 -30.5t-30.5 -120.5v-156h231v-127h-231v-938h-147v938h-181z" />
<glyph unicode="g" d="M41 -135q0 80 47 126t133 91q-61 18 -97 61t-36 101.5t41 95.5t102 76q-145 109 -145 297q0 166 116 270q113 102 287 102q158 0 265 -73q110 82 229 94v-148q-106 0 -164 -28q23 -29 48.5 -86.5t25.5 -134t-31 -144t-83 -117.5q-111 -108 -275 -108q-93 0 -189 29 q-84 -25 -84 -99q0 -37 24 -57t64 -20q371 0 523 -72q143 -68 143 -227q0 -122 -119 -202q-126 -85 -366 -85q-459 0 -459 258zM180 -133q0 -68 62 -97q75 -36 282 -36q220 0 296 86q26 28 26 67q-2 78 -87 118t-282 40q-155 0 -235 -61q-62 -47 -62 -117zM225 712 q0 -105 76 -175t199 -70q119 0 189 71q65 67 65 175.5t-68 176.5t-199 68t-196.5 -70.5t-65.5 -175.5z" />
<glyph unicode="h" horiz-adv-x="1138" d="M182 0v1479h148v-557h4q143 163 315 163q211 0 281 -165q26 -60 26 -146v-774h-147v770q0 106 -47 147t-107.5 41t-104.5 -15t-84 -39q-80 -47 -136 -107v-797h-148z" />
<glyph unicode="i" horiz-adv-x="569" d="M211 0v1065h147v-1065h-147zM211 1323v176h147v-176h-147z" />
<glyph unicode="j" horiz-adv-x="569" d="M45 -248q36 -18 88.5 -18t79.5 23.5t27 82.5v1225h147v-1235q0 -98 -58.5 -160.5t-148 -62.5t-135.5 24v121zM240 1323v176h147v-176h-147z" />
<glyph unicode="k" d="M172 0v1479h147v-953h5l430 539h178l-314 -393l355 -672h-174l-283 545l-197 -226v-319h-147z" />
<glyph unicode="l" horiz-adv-x="569" d="M211 0v1479h147v-1479h-147z" />
<glyph unicode="m" horiz-adv-x="1705" d="M168 0v1065h147v-141l9 8q68 76 149.5 114.5t172.5 38.5t161 -47t98 -120q158 167 338 167q203 0 267 -161q26 -64 26 -162v-762h-147v762q0 109 -47.5 152.5t-107.5 43.5t-101 -14t-77 -37.5t-68 -53.5t-62 -58v-795h-148v762q0 109 -47 152.5t-107.5 43.5t-101.5 -14 t-76.5 -37.5t-67.5 -53.5t-63 -58v-795h-147z" />
<glyph unicode="n" horiz-adv-x="1138" d="M182 0v1065h148v-143h4q143 163 315 163q211 0 281 -165q26 -60 26 -146v-774h-147v770q0 106 -47 147t-107.5 41t-104.5 -15t-84 -39q-80 -47 -136 -107v-797h-148z" />
<glyph unicode="o" d="M76 532q0 243 110 392q117 161 326 161t326 -161q110 -149 110 -392q0 -242 -110 -392q-117 -160 -326 -160t-326 160q-110 150 -110 392zM223 532q0 -207 78 -316.5t211 -109.5t211 109.5t78 316.5t-78 316.5t-211 109.5t-211 -109.5t-78 -316.5z" />
<glyph unicode="p" horiz-adv-x="1138" d="M180 -393v1458h148v-125h4q35 55 120 102q76 43 151 43t153 -26.5t142 -90.5q146 -146 146 -436q0 -280 -146 -430q-62 -65 -138 -93.5t-148 -28.5q-135 0 -276 118l-8 4v-495h-148zM328 254q59 -66 130.5 -107t136 -41t120 23t96.5 74q86 107 86 325t-81 324t-220 106 q-72 0 -131 -32.5t-137 -110.5v-561z" />
<glyph unicode="q" horiz-adv-x="1138" d="M94 532q0 289 148 436q116 117 291.5 117t279.5 -133l27 113h118v-1458h-147v495l-8 -4q-141 -118 -281 -118q-164 0 -282 122q-146 151 -146 430zM242 541q0 -335 181 -412q54 -23 120 -23t137.5 41t130.5 107v561q-78 78 -137.5 110.5t-130.5 32.5q-139 0 -220 -106.5 t-81 -310.5z" />
<glyph unicode="r" horiz-adv-x="681" d="M143 0v1065h148v-211h4q67 118 137 168q83 59 209 59v-147q-139 -4 -218 -91t-132 -253v-590h-148z" />
<glyph unicode="s" horiz-adv-x="909" d="M49 182l117 88q114 -164 305 -164q119 0 174 54.5t55 122.5t-47 105.5t-116.5 62t-150.5 46t-149.5 56.5t-113.5 92q-41 52 -41 138v16q4 139 102 213q95 73 242 73h8q163 0 297 -111q41 -34 68 -75l-103 -90q-61 76 -124.5 112.5t-153.5 36.5t-139.5 -43t-49.5 -107 t46.5 -97t115 -56.5t148 -46t148.5 -60.5q161 -89 161 -257q0 -149 -114 -234q-103 -77 -243 -77q-289 0 -442 202z" />
<glyph unicode="t" horiz-adv-x="681" d="M37 938v127h174v350h147v-350h246v-127h-246v-758q0 -74 121 -74q54 0 131 11v-121q-53 -16 -173 -16t-173 36.5t-53 139.5v782h-174z" />
<glyph unicode="u" horiz-adv-x="1138" d="M182 291v774h148v-770q0 -106 47 -147.5t107.5 -41.5t104.5 15.5t84 38.5q75 45 136 108v797h147v-1065h-147v143h-4q-143 -163 -316 -163q-211 0 -281 166q-26 59 -26 145z" />
<glyph unicode="v" horiz-adv-x="909" d="M33 1065h149l271 -881h4l270 881h150l-320 -1065h-197z" />
<glyph unicode="w" horiz-adv-x="1366" d="M33 1065h149l215 -819h4l209 819h150l213 -823h4l207 823h149l-284 -1065h-150l-213 823h-4l-211 -823h-149z" />
<glyph unicode="x" horiz-adv-x="909" d="M25 0l335 559l-311 506h166l234 -379l223 379h166l-299 -506l346 -559h-170l-266 436l-259 -436h-165z" />
<glyph unicode="y" horiz-adv-x="909" d="M25 1065h155l287 -813h4l250 813h156l-375 -1159q-53 -164 -156 -239q-83 -60 -203 -60q-40 0 -106 12v121q48 -6 80.5 -6t73 7t79.5 33q94 61 125 214z" />
<glyph unicode="z" horiz-adv-x="909" d="M61 0v106l582 832h-524v127h725v-107l-582 -831h586v-127h-787z" />
<glyph unicode="{" horiz-adv-x="681" d="M98 621v86q127 0 127 159v408q0 225 191 225h127v-86h-78q-92 0 -92 -115v-471q0 -139 -152 -161v-4q152 -22 152 -162v-471q0 -115 92 -115h78v-86h-127q-98 0 -144.5 60.5t-46.5 164.5v408q0 160 -127 160z" />
<glyph unicode="|" horiz-adv-x="454" d="M164 -20v1519h127v-1519h-127z" />
<glyph unicode="}" horiz-adv-x="681" d="M139 -86h78q92 0 92 115v471q0 78 41 114.5t111 47.5v4q-152 22 -152 161v471q0 115 -92 115h-78v86h127q98 0 144.5 -60.5t46.5 -164.5v-408q0 -159 127 -159v-86q-127 0 -127 -160v-408q0 -225 -191 -225h-127v86z" />
<glyph unicode="~" horiz-adv-x="1228" d="M135 483q95 185 262 185q86 0 236 -70q59 -27 110.5 -48.5t86.5 -21.5t60 13.5t46 34.5q25 23 78 98l80 -90q-64 -89 -102 -121q-76 -62 -149 -62t-123 21.5t-102 48.5q-51 27 -105 48.5t-124 21.5t-109.5 -46t-64.5 -104z" />
<glyph unicode="&#xa1;" horiz-adv-x="681" d="M233 -414l43 1012h132l43 -1012h-218zM242 840v225h200v-225h-200z" />
<glyph unicode="&#xa2;" horiz-adv-x="1251" d="M184 532q0 254 118 406q114 147 319 147q78 0 133 -18l65 182h117l-84 -231q94 -69 158 -221l-138 -49q-25 82 -71 131l-273 -756q79 -32 184 -7q117 27 201 187l119 -53q-90 -150 -167 -204q-93 -66 -244 -66q-81 0 -138 22l-84 -229h-116l100 278q-199 141 -199 481z M332 515.5q0 -221.5 102 -327.5l275 754q-39 16 -88 16q-137 0 -213 -110.5t-76 -332z" />
<glyph unicode="&#xa3;" horiz-adv-x="1251" d="M53 672v127h201q-25 147 -25 246t30 183.5t87 145.5q118 125 322.5 125t318 -99.5t156.5 -281.5l-139 -24q-39 120 -85.5 171.5t-99.5 79t-137 27.5t-142.5 -26.5t-92 -69.5t-48 -96.5t-14.5 -137.5t21 -243h311v-127h-295q12 -50 12 -140q0 -159 -57 -276 q51 -25 99 -51.5t91 -48.5q101 -50 166 -50q145 0 217 69t99 194l131 -25q-61 -364 -410 -364q-139 0 -260 52q-60 25 -209 107q-96 -139 -246 -159v159q94 17 159 109q73 103 73 224.5t-15 199.5h-219z" />
<glyph unicode="&#xa4;" horiz-adv-x="1251" d="M115 311l112 113q-110 137 -110 315q0 179 110 316l-112 112l86 86l114 -114q129 108 310 108q178 0 309 -108l115 114l86 -86l-113 -112q111 -138 111 -316q0 -179 -111 -315l113 -113l-86 -86l-115 115q-130 -109 -309 -109q-177 0 -310 109l-114 -115zM244 739 q0 -177 110 -285q106 -104 271 -104t270 104q111 109 111 285q0 175 -111 284q-107 105 -270 105q-162 0 -271 -105q-110 -107 -110 -284z" />
<glyph unicode="&#xa5;" horiz-adv-x="1251" d="M100 1479h148l377 -711l376 711h148l-301 -566h209v-127h-275l-88 -163v-17h363v-127h-363v-479h-139v479h-362v127h362v17l-86 163h-276v127h208z" />
<glyph unicode="&#xa6;" horiz-adv-x="454" d="M164 -20v573h127v-573h-127zM164 926v573h127v-573h-127z" />
<glyph unicode="&#xa7;" d="M119 822q0 89 61.5 146.5t184.5 63.5q-69 84 -85 111q-34 56 -34 114t19.5 100t52.5 73q73 69 177.5 69t171 -39t140.5 -131l-98 -55q-42 50 -66 69q-60 46 -124 46t-99 -36t-35 -71t7 -55.5t32 -50.5q48 -59 207 -218q172 -172 212 -230t51 -96t11 -86t-17.5 -87 t-47.5 -65q-61 -53 -158 -66q51 -59 81 -115.5t30 -120t-17.5 -107.5t-52.5 -79q-78 -78 -196.5 -78t-200.5 50t-127 130l104 66q89 -135 209 -135q61 0 101 35.5t40 88t-39 111.5t-98 125t-128 135.5t-128 137.5q-141 161 -141 250zM258 831q0 -37 10.5 -61.5t31.5 -51.5 q27 -34 126 -138q89 -93 122 -117q54 -37 100 -37t82 30.5t36 84.5q0 65 -89 165q-183 208 -257 224q-19 4 -54.5 4t-71.5 -33t-36 -70z" />
<glyph unicode="&#xa8;" horiz-adv-x="569" d="M33 1208v193h180v-193h-180zM356 1208v193h181v-193h-181z" />
<glyph unicode="&#xa9;" horiz-adv-x="1638" d="M49 740q0 165 61.5 303.5t168 239.5t246 158.5t296 57.5t295.5 -57.5t244.5 -158.5t167 -239.5t61.5 -303.5t-61.5 -304t-167 -240.5t-244.5 -158.5t-296 -57t-296 57t-245.5 158.5t-168 240.5t-61.5 304zM197 741q0 -275 180 -457t444 -182q261 0 441 182t180 455 q0 137 -48 254t-132 202q-179 181 -441 181q-265 0 -444 -181q-180 -182 -180 -454zM399 743q0 206 117 333q121 130 324 130q148 0 250 -81q106 -83 131 -232h-138q-16 88 -80.5 139t-148.5 51t-139.5 -25.5t-92.5 -70.5q-75 -93 -75 -242q0 -146 80 -244q84 -104 219 -104 q98 0 161.5 54.5t75.5 146.5h140q-31 -150 -133.5 -237t-243.5 -87q-200 0 -324 136q-123 132 -123 333z" />
<glyph unicode="&#xaa;" horiz-adv-x="614" d="M29 1020q0 96 96 158.5t317 101.5v27q0 98 -131 98q-80 0 -120.5 -28.5t-55.5 -61.5l-84 49q35 55 98.5 95t161.5 40q161 0 221 -102q21 -37 21 -90v-322q0 -89 16 -137h-108l-12 72q-35 -25 -88.5 -54.5t-133.5 -29.5t-139 44t-59 140zM139 1010q0 -33 25.5 -56.5 t77 -23.5t109 27.5t91.5 60.5v168q-147 -29 -225 -70t-78 -106z" />
<glyph unicode="&#xab;" d="M164 532l266 324h143l-264 -324l264 -323h-139zM451 532l266 324h143l-264 -324l264 -323h-139z" />
<glyph unicode="&#xac;" horiz-adv-x="1228" d="M82 678v127h1065v-545h-127v418h-938z" />
<glyph unicode="&#xad;" horiz-adv-x="681" d="M82 469v127h516v-127h-516z" />
<glyph unicode="&#xae;" horiz-adv-x="1638" d="M49 740q0 165 61.5 303.5t168 239.5t246 158.5t296 57.5t295.5 -57.5t244.5 -158.5t167 -239.5t61.5 -303.5t-61.5 -304t-167 -240.5t-244.5 -158.5t-296 -57t-296 57t-245.5 158.5t-168 240.5t-61.5 304zM197 741q0 -275 180 -457t444 -182q261 0 441 182t180 455 q0 137 -48 254t-132 202q-179 181 -441 181q-265 0 -444 -181q-180 -182 -180 -454zM524 301v877h336q158 0 234.5 -60.5t76.5 -184.5t-65.5 -179.5t-163.5 -67.5l250 -385h-148l-233 381h-152v-381h-135zM659 793h160q123 0 170 35.5t47 103t-40 101.5t-154 34h-183v-274z " />
<glyph unicode="&#xaf;" horiz-adv-x="569" d="M-35 1253v123h639v-123h-639z" />
<glyph unicode="&#xb0;" horiz-adv-x="819" d="M115 1204q0 123 85 208q87 87 210 87q122 0 208 -87q87 -89 87 -208q0 -121 -87 -210q-84 -85 -208 -85q-125 0 -210 85t-85 210zM213 1204q0 -88 57.5 -146.5t139.5 -58.5t139 58.5t57 146.5t-57 146.5t-139 58.5t-139.5 -58.5t-57.5 -146.5z" />
<glyph unicode="&#xb1;" horiz-adv-x="1228" d="M82 0v127h1065v-127h-1065zM82 571v127h469v367h127v-367h469v-127h-469v-366h-127v366h-469z" />
<glyph unicode="&#xb2;" horiz-adv-x="749" d="M57 598v111q85 157 322 304q125 77 171 143q28 40 28 99.5t-46.5 100.5t-136.5 41q-185 0 -241 -180l-95 32q49 172 211 229q58 21 131 21q129 0 208 -63.5t79 -173.5q0 -129 -108 -224q-48 -43 -106 -80.5t-116 -75.5q-139 -90 -190 -182h524v-102h-635z" />
<glyph unicode="&#xb3;" horiz-adv-x="749" d="M25 758l81 65q100 -135 261 -135q104 0 159.5 41t55.5 122t-58.5 126t-204.5 45h-92v102h84q117 0 177.5 35t60.5 119q0 47 -46 83t-128 36t-127 -25.5t-90 -79.5l-86 58q49 63 120.5 106t194.5 43t197.5 -57.5t74.5 -150.5q0 -163 -133 -208v-4q124 -39 157 -169 q9 -36 9 -68q0 -115 -87 -185.5t-238 -70.5q-122 0 -224 60q-75 45 -118 112z" />
<glyph unicode="&#xb4;" horiz-adv-x="569" d="M152 1188l182 291h223l-268 -291h-137z" />
<glyph unicode="&#xb6;" d="M20 1071q0 203 122 305.5t339 102.5h568v-103h-146v-1548h-123v1548h-209v-1548h-122v850q-186 0 -307 116q-122 115 -122 277z" />
<glyph unicode="&#xb7;" horiz-adv-x="624" d="M184 530q0 53 36 91t90 38t91 -37.5t37 -91.5q0 -53 -36.5 -88.5t-91 -35.5t-90.5 35.5t-36 88.5z" />
<glyph unicode="&#xb8;" horiz-adv-x="569" d="M59 -416l35 90q63 -39 135 -39q115 0 115 89q0 33 -22.5 55t-71.5 22t-84 -16l-35 39l129 176h98l-96 -119l4 -4q31 10 62 10q88 0 131 -53t41 -129t-66.5 -120t-154.5 -44t-136.5 13.5t-83.5 29.5z" />
<glyph unicode="&#xb9;" horiz-adv-x="749" d="M156 1370v68q151 43 182 61h111v-799h161v-102h-436v102h156v697z" />
<glyph unicode="&#xba;" horiz-adv-x="614" d="M25 1167q0 156 76.5 244t206.5 88t206 -88t76 -244t-76 -243.5t-206 -87.5t-206.5 87.5t-76.5 243.5zM143 1171q0 -237 164 -237q82 0 123 61.5t41 171.5q0 111 -41 172.5t-121 61.5t-123 -62t-43 -168z" />
<glyph unicode="&#xbb;" d="M164 209l264 323l-264 324h143l266 -324l-270 -323h-139zM451 209l264 323l-264 324h143l266 -324l-270 -323h-139z" />
<glyph unicode="&#xbc;" horiz-adv-x="1875" d="M180 1370v68q49 14 100.5 28.5t81.5 32.5h111v-799h162v-102h-436v102h155v697zM449 -20l899 1519h127l-906 -1519h-120zM1075 209v92l379 588h158v-578h166v-102h-166v-209h-111v209h-426zM1200 311h301v459h-4z" />
<glyph unicode="&#xbd;" horiz-adv-x="1875" d="M180 1370v68q49 14 100.5 28.5t81.5 32.5h111v-799h162v-102h-436v102h155v697zM408 -20l899 1519h127l-906 -1519h-120zM1126 0v111q85 157 322 304q125 77 171 143q28 40 28 99.5t-46.5 100.5t-118 41t-112.5 -15.5t-70 -41.5q-53 -45 -77 -124l-95 33q49 172 212 229 q57 21 130 21q129 0 208 -63.5t79 -173.5q0 -128 -107 -224q-48 -43 -106.5 -80.5t-117.5 -75.5q-138 -90 -189 -182h524v-102h-635z" />
<glyph unicode="&#xbe;" horiz-adv-x="1875" d="M98 758l82 65q100 -135 260 -135q104 0 159.5 41t55.5 122t-58 126t-204 45h-92v102h84q117 0 177.5 35t60.5 119q0 47 -46.5 83t-128 36t-127 -25.5t-90.5 -79.5l-86 58q49 63 121 106t195 43t197.5 -57.5t74.5 -150.5q0 -162 -133 -208v-4q124 -39 157 -169 q9 -36 9 -68q0 -115 -87 -185.5t-239 -70.5q-121 0 -223 60q-72 43 -119 112zM481 -20l899 1519h127l-905 -1519h-121zM1075 209v92l379 588h158v-578h166v-102h-166v-209h-111v209h-426zM1200 311h301v459h-4z" />
<glyph unicode="&#xbf;" horiz-adv-x="909" d="M135 -123q0 113 84 225q37 50 78 94t78 89q84 102 84 198v115h139v-113q0 -170 -154 -333q-97 -104 -125 -164t-28 -105t9 -76.5t30 -56.5q51 -57 128 -57t126 35.5t94 121.5l123 -59q-103 -225 -334 -225q-136 0 -231 81q-101 87 -101 230zM432 840v225h201v-225h-201z " />
<glyph unicode="&#xc0;" horiz-adv-x="1251" d="M49 0l455 1479h244l454 -1479h-172l-139 463h-531l-139 -463h-172zM354 1848h224l182 -291h-137zM401 602h449l-213 762h-23z" />
<glyph unicode="&#xc1;" horiz-adv-x="1251" d="M49 0l455 1479h244l454 -1479h-172l-139 463h-531l-139 -463h-172zM401 602h449l-213 762h-23zM494 1557l182 291h223l-268 -291h-137z" />
<glyph unicode="&#xc2;" horiz-adv-x="1251" d="M49 0l455 1479h244l454 -1479h-172l-139 463h-531l-139 -463h-172zM328 1557l200 291h193l205 -291h-164l-137 192l-133 -192h-164zM401 602h449l-213 762h-23z" />
<glyph unicode="&#xc3;" horiz-adv-x="1251" d="M49 0l455 1479h244l454 -1479h-172l-139 463h-531l-139 -463h-172zM276 1575q10 92 63.5 158t156.5 66q57 0 120.5 -26.5t96 -38t68.5 -11.5t61.5 24.5t31.5 65.5h103q-15 -135 -123 -198q-35 -21 -76 -21q-59 0 -130 27q-131 51 -173.5 51t-68 -31t-27.5 -66h-103z M401 602h449l-213 762h-23z" />
<glyph unicode="&#xc4;" horiz-adv-x="1251" d="M49 0l455 1479h244l454 -1479h-172l-139 463h-531l-139 -463h-172zM375 1577v193h180v-193h-180zM401 602h449l-213 762h-23zM698 1577v193h181v-193h-181z" />
<glyph unicode="&#xc5;" horiz-adv-x="1251" d="M49 0l455 1479h244l454 -1479h-172l-139 463h-531l-139 -463h-172zM401 602h449l-213 762h-23zM422 1762q0 86 59.5 145t145.5 59t145 -59t59 -145t-59 -145.5t-145 -59.5t-145.5 59.5t-59.5 145.5zM512 1762q0 -47 34 -81t81 -34t80.5 34t33.5 81t-33.5 80.5t-80.5 33.5 t-81 -33.5t-34 -80.5z" />
<glyph unicode="&#xc6;" horiz-adv-x="2048" d="M33 0l833 1479h1039v-140h-723v-495h514v-139h-514v-566h764v-139h-928v463h-545l-254 -463h-186zM553 602h465v762h-45z" />
<glyph unicode="&#xc7;" horiz-adv-x="1251" d="M86 739q0 361 148 561q149 199 417 199q397 0 500 -430l-152 -45q-43 169 -120 246q-90 90 -248 90q-169 0 -271 -150q-110 -165 -110 -471q0 -463 246 -583q75 -37 168 -37q277 0 360 352l147 -29q-113 -462 -520 -462q-258 0 -407 185q-158 198 -158 574zM419 -416 l35 90q63 -39 135 -39q115 0 115 89q0 33 -22.5 55t-71.5 22t-84 -16l-35 39l129 176h98l-96 -119l4 -4q31 10 62 10q88 0 131 -53t41 -129t-66.5 -120t-154.5 -44t-136.5 13.5t-83.5 29.5z" />
<glyph unicode="&#xc8;" horiz-adv-x="1251" d="M221 0v1479h887v-140h-723v-495h514v-139h-514v-566h764v-139h-928zM411 1848h224l182 -291h-137z" />
<glyph unicode="&#xc9;" horiz-adv-x="1251" d="M221 0v1479h887v-140h-723v-495h514v-139h-514v-566h764v-139h-928zM551 1557l182 291h223l-268 -291h-137z" />
<glyph unicode="&#xca;" horiz-adv-x="1251" d="M221 0v1479h887v-140h-723v-495h514v-139h-514v-566h764v-139h-928zM385 1557l200 291h193l205 -291h-164l-137 192l-133 -192h-164z" />
<glyph unicode="&#xcb;" horiz-adv-x="1251" d="M221 0v1479h887v-140h-723v-495h514v-139h-514v-566h764v-139h-928zM432 1577v193h180v-193h-180zM755 1577v193h181v-193h-181z" />
<glyph unicode="&#xcc;" horiz-adv-x="681" d="M69 1848h224l182 -291h-137zM258 0v1479h164v-1479h-164z" />
<glyph unicode="&#xcd;" horiz-adv-x="681" d="M209 1557l182 291h223l-268 -291h-137zM258 0v1479h164v-1479h-164z" />
<glyph unicode="&#xce;" horiz-adv-x="681" d="M43 1557l200 291h193l205 -291h-164l-137 192l-133 -192h-164zM258 0v1479h164v-1479h-164z" />
<glyph unicode="&#xcf;" horiz-adv-x="681" d="M90 1577v193h180v-193h-180zM258 0v1479h164v-1479h-164zM413 1577v193h181v-193h-181z" />
<glyph unicode="&#xd0;" horiz-adv-x="1366" d="M66 705v139h139v635h397q308 0 484 -188q184 -195 184 -552q0 -336 -172 -532q-182 -207 -504 -207h-389v705h-139zM369 139h221q516 0 516 600q0 308 -140 462q-126 138 -368 138h-229v-495h385v-139h-385v-566z" />
<glyph unicode="&#xd1;" horiz-adv-x="1478" d="M221 0v1479h236l645 -1139h8v1139h147v-1479h-135l-749 1319h-4v-1319h-148zM389 1575q10 92 63.5 158t156.5 66q57 0 120.5 -26.5t96 -38t68.5 -11.5t61.5 24.5t31.5 65.5h103q-15 -135 -123 -198q-35 -21 -76 -21q-59 0 -130 27q-131 51 -173.5 51t-68 -31t-27.5 -66 h-103z" />
<glyph unicode="&#xd2;" horiz-adv-x="1366" d="M104 739q0 373 152 566.5t426 193.5t426 -193.5t152 -566.5t-152 -566t-426 -193t-426 193t-152 566zM268 739q0 -315 109.5 -467.5t304.5 -152.5t304.5 152.5t109.5 467.5t-109.5 468t-304.5 153t-304.5 -153t-109.5 -468zM411 1848h224l182 -291h-137z" />
<glyph unicode="&#xd3;" horiz-adv-x="1366" d="M104 739q0 373 152 566.5t426 193.5t426 -193.5t152 -566.5t-152 -566t-426 -193t-426 193t-152 566zM268 739q0 -315 109.5 -467.5t304.5 -152.5t304.5 152.5t109.5 467.5t-109.5 468t-304.5 153t-304.5 -153t-109.5 -468zM551 1557l182 291h223l-268 -291h-137z" />
<glyph unicode="&#xd4;" horiz-adv-x="1366" d="M104 739q0 373 152 566.5t426 193.5t426 -193.5t152 -566.5t-152 -566t-426 -193t-426 193t-152 566zM268 739q0 -315 109.5 -467.5t304.5 -152.5t304.5 152.5t109.5 467.5t-109.5 468t-304.5 153t-304.5 -153t-109.5 -468zM385 1557l200 291h193l205 -291h-164l-137 192 l-133 -192h-164z" />
<glyph unicode="&#xd5;" horiz-adv-x="1366" d="M104 739q0 373 152 566.5t426 193.5t426 -193.5t152 -566.5t-152 -566t-426 -193t-426 193t-152 566zM268 739q0 -315 109.5 -467.5t304.5 -152.5t304.5 152.5t109.5 467.5t-109.5 468t-304.5 153t-304.5 -153t-109.5 -468zM333 1575q10 92 63.5 158t156.5 66 q57 0 120.5 -26.5t96 -38t68.5 -11.5t61.5 24.5t31.5 65.5h103q-15 -135 -123 -198q-35 -21 -76 -21q-59 0 -130 27q-131 51 -173.5 51t-68 -31t-27.5 -66h-103z" />
<glyph unicode="&#xd6;" horiz-adv-x="1366" d="M104 739q0 373 152 566.5t426 193.5t426 -193.5t152 -566.5t-152 -566t-426 -193t-426 193t-152 566zM268 739q0 -315 109.5 -467.5t304.5 -152.5t304.5 152.5t109.5 467.5t-109.5 468t-304.5 153t-304.5 -153t-109.5 -468zM432 1577v193h180v-193h-180zM755 1577v193 h181v-193h-181z" />
<glyph unicode="&#xd7;" horiz-adv-x="1228" d="M82 90l442 442l-442 443l90 90l442 -447l443 447l90 -90l-442 -443l442 -442l-90 -90l-443 442l-442 -442z" />
<glyph unicode="&#xd8;" horiz-adv-x="1366" d="M66 -131l192 305q-154 197 -154 567.5t152 564t426 193.5q203 0 336 -106l115 184h143l-170 -270q154 -200 154 -570.5t-152 -563.5t-426 -193q-201 0 -340 110l-139 -221h-137zM268 765q0 -290 82 -441l588 940q-100 96 -256 96q-195 0 -304.5 -152.5t-109.5 -442.5z M424 219q94 -100 258 -100q195 0 304.5 152.5t109.5 443t-82 444.5z" />
<glyph unicode="&#xd9;" horiz-adv-x="1478" d="M221 446v1033h164v-1045q0 -137 90 -223q96 -92 264 -92q167 0 265 92q90 86 90 223v1045h163v-1033q0 -219 -144 -344q-142 -122 -374 -122t-373 122q-145 126 -145 344zM467 1848h224l182 -291h-137z" />
<glyph unicode="&#xda;" horiz-adv-x="1478" d="M221 446v1033h164v-1045q0 -137 90 -223q96 -92 264 -92q167 0 265 92q90 86 90 223v1045h163v-1033q0 -219 -144 -344q-142 -122 -374 -122t-373 122q-145 126 -145 344zM607 1557l182 291h223l-268 -291h-137z" />
<glyph unicode="&#xdb;" horiz-adv-x="1478" d="M221 446v1033h164v-1045q0 -137 90 -223q96 -92 264 -92q167 0 265 92q90 86 90 223v1045h163v-1033q0 -219 -144 -344q-142 -122 -374 -122t-373 122q-145 126 -145 344zM441 1557l200 291h193l205 -291h-164l-137 192l-133 -192h-164z" />
<glyph unicode="&#xdc;" horiz-adv-x="1478" d="M221 446v1033h164v-1045q0 -137 90 -223q96 -92 264 -92q167 0 265 92q90 86 90 223v1045h163v-1033q0 -219 -144 -344q-142 -122 -374 -122t-373 122q-145 126 -145 344zM488 1577v193h180v-193h-180zM811 1577v193h181v-193h-181z" />
<glyph unicode="&#xdd;" horiz-adv-x="1138" d="M33 1479h180l356 -678l357 678h180l-455 -856v-623h-164v623zM437 1557l182 291h223l-268 -291h-137z" />
<glyph unicode="&#xde;" horiz-adv-x="1251" d="M205 0v1479h164v-287h352q225 0 344 -119q109 -109 109 -294t-132.5 -295.5t-410.5 -110.5h-262v-373h-164zM369 512h278q289 0 345 154q18 51 18 116q0 271 -326 271h-315v-541z" />
<glyph unicode="&#xdf;" horiz-adv-x="1138" d="M193 0v1135q0 185 119 280q104 84 261 84q180 0 279 -101q94 -96 94 -255q0 -220 -182 -309v-5q143 -41 207.5 -154.5t64.5 -244.5t-28.5 -209t-77.5 -132q-99 -109 -242 -109q-127 0 -215 55l55 121q63 -50 133 -50t110 23t67 61q51 72 51 186.5t-25.5 184.5t-73.5 113 q-91 80 -272 80v127h60q90 0 155 71q66 71 66 178q0 242 -230 242q-121 0 -172 -69.5t-57 -204.5v-1098h-147z" />
<glyph unicode="&#xe0;" d="M86 279.5q0 80.5 35 147.5t113 119q147 99 503 161v57q0 194 -219 194q-162 0 -240 -109q-22 -30 -32 -56l-129 67q51 92 149.5 158.5t249.5 66.5q243 0 336 -171q33 -60 33 -148v-537q0 -131 24 -229h-151l-17 147q-55 -61 -143 -114t-209 -53q-205 0 -279 164 q-24 55 -24 135.5zM229 1479h224l182 -291h-137zM233 270q0 -69 57 -120q51 -44 105 -44t99 13.5t88 38.5q92 52 155 125v292q-504 -88 -504 -305z" />
<glyph unicode="&#xe1;" d="M86 279.5q0 80.5 35 147.5t113 119q147 99 503 161v57q0 194 -219 194q-162 0 -240 -109q-22 -30 -32 -56l-129 67q51 92 149.5 158.5t249.5 66.5q243 0 336 -171q33 -60 33 -148v-537q0 -131 24 -229h-151l-17 147q-55 -61 -143 -114t-209 -53q-205 0 -279 164 q-24 55 -24 135.5zM233 270q0 -69 57 -120q51 -44 105 -44t99 13.5t88 38.5q92 52 155 125v292q-504 -88 -504 -305zM369 1188l182 291h223l-268 -291h-137z" />
<glyph unicode="&#xe2;" d="M86 279.5q0 80.5 35 147.5t113 119q147 99 503 161v57q0 194 -219 194q-162 0 -240 -109q-22 -30 -32 -56l-129 67q51 92 149.5 158.5t249.5 66.5q243 0 336 -171q33 -60 33 -148v-537q0 -131 24 -229h-151l-17 147q-55 -61 -143 -114t-209 -53q-205 0 -279 164 q-24 55 -24 135.5zM203 1188l200 291h193l205 -291h-164l-137 192l-133 -192h-164zM233 270q0 -69 57 -120q51 -44 105 -44t99 13.5t88 38.5q92 52 155 125v292q-504 -88 -504 -305z" />
<glyph unicode="&#xe3;" d="M86 279.5q0 80.5 35 147.5t113 119q147 99 503 161v57q0 194 -219 194q-162 0 -240 -109q-22 -30 -32 -56l-129 67q51 92 149.5 158.5t249.5 66.5q243 0 336 -171q33 -60 33 -148v-537q0 -131 24 -229h-151l-17 147q-55 -61 -143 -114t-209 -53q-205 0 -279 164 q-24 55 -24 135.5zM151 1206q10 92 63.5 158t156.5 66q57 0 120.5 -26.5t96 -38t68.5 -11.5t61.5 24.5t31.5 65.5h103q-15 -135 -123 -198q-35 -21 -76 -21q-59 0 -130 27q-131 51 -173.5 51t-68 -31t-27.5 -66h-103zM233 270q0 -69 57 -120q51 -44 105 -44t99 13.5t88 38.5 q92 52 155 125v292q-504 -88 -504 -305z" />
<glyph unicode="&#xe4;" d="M86 279.5q0 80.5 35 147.5t113 119q147 99 503 161v57q0 194 -219 194q-162 0 -240 -109q-22 -30 -32 -56l-129 67q51 92 149.5 158.5t249.5 66.5q243 0 336 -171q33 -60 33 -148v-537q0 -131 24 -229h-151l-17 147q-55 -61 -143 -114t-209 -53q-205 0 -279 164 q-24 55 -24 135.5zM233 270q0 -69 57 -120q51 -44 105 -44t99 13.5t88 38.5q92 52 155 125v292q-504 -88 -504 -305zM250 1208v193h180v-193h-180zM573 1208v193h181v-193h-181z" />
<glyph unicode="&#xe5;" d="M86 279.5q0 80.5 35 147.5t113 119q147 99 503 161v57q0 194 -219 194q-162 0 -240 -109q-22 -30 -32 -56l-129 67q51 92 149.5 158.5t249.5 66.5q243 0 336 -171q33 -60 33 -148v-537q0 -131 24 -229h-151l-17 147q-55 -61 -143 -114t-209 -53q-205 0 -279 164 q-24 55 -24 135.5zM233 270q0 -69 57 -120q51 -44 105 -44t99 13.5t88 38.5q92 52 155 125v292q-504 -88 -504 -305zM297 1393q0 86 59.5 145t145.5 59t145 -59t59 -145t-59 -145.5t-145 -59.5t-145.5 59.5t-59.5 145.5zM387 1393q0 -47 34 -81t81 -34t80.5 34t33.5 81 t-33.5 80.5t-80.5 33.5t-81 -33.5t-34 -80.5z" />
<glyph unicode="&#xe6;" horiz-adv-x="1593" d="M70 247q0 122 52 200.5t138 130t197.5 80t230.5 49.5v57q0 195 -201 194q-107 0 -180 -54q-58 -44 -84 -111l-125 67q47 92 143.5 158.5t237.5 66.5q217 0 307 -143q45 55 121 99t171.5 44t167 -27.5t126.5 -85.5q119 -127 119 -370v-98h-655q0 -186 74.5 -292 t228.5 -106q80 0 151.5 48.5t118.5 132.5l115 -60q-69 -116 -127 -160q-114 -87 -271 -87q-113 0 -174 26.5t-103 61t-79 92.5q-157 -151 -309 -173q-49 -7 -101.5 -7t-103.5 18t-93 52q-93 75 -93 197zM217 268q0 -72 52.5 -117t111.5 -45t107.5 16.5t87.5 41.5 q80 51 112 110v301q-206 -41 -294.5 -87t-132.5 -97t-44 -123zM836 631h507q0 147 -68.5 237t-193.5 90t-183 -90t-62 -237z" />
<glyph unicode="&#xe7;" d="M82 532q0 256 118 406q115 147 318 147q221 0 331 -173q34 -54 58 -115l-137 -49q-66 210 -252 210q-137 0 -213 -110.5t-76 -315.5t76 -315.5t213 -110.5q101 0 151 32t80.5 70t61.5 95l119 -53q-90 -150 -167 -204q-93 -66 -219 -66t-207 37.5t-137 109.5 q-118 150 -118 405zM286 -416l35 90q63 -39 135 -39q115 0 115 89q0 33 -22.5 55t-71.5 22t-84 -16l-35 39l129 176h98l-96 -119l4 -4q31 10 62 10q88 0 131 -53t41 -129t-66.5 -120t-154.5 -44t-136.5 13.5t-83.5 29.5z" />
<glyph unicode="&#xe8;" d="M82 532q0 258 118 406q118 147 316 147q177 0 284 -113q122 -129 122 -370v-98h-693q0 -174 93 -286t223 -112q194 0 295 181l114 -60q-70 -117 -129 -160q-117 -87 -280 -87q-196 0 -321 130q-142 150 -142 422zM233 631h541q0 147 -66.5 237t-194.5 90t-198.5 -90 t-81.5 -237zM239 1479h224l182 -291h-137z" />
<glyph unicode="&#xe9;" d="M82 532q0 258 118 406q118 147 316 147q177 0 284 -113q122 -129 122 -370v-98h-693q0 -174 93 -286t223 -112q194 0 295 181l114 -60q-70 -117 -129 -160q-117 -87 -280 -87q-196 0 -321 130q-142 150 -142 422zM233 631h541q0 147 -66.5 237t-194.5 90t-198.5 -90 t-81.5 -237zM379 1188l182 291h223l-268 -291h-137z" />
<glyph unicode="&#xea;" d="M82 532q0 258 118 406q118 147 316 147q177 0 284 -113q122 -129 122 -370v-98h-693q0 -174 93 -286t223 -112q194 0 295 181l114 -60q-70 -117 -129 -160q-117 -87 -280 -87q-196 0 -321 130q-142 150 -142 422zM213 1188l200 291h193l205 -291h-164l-137 192l-133 -192 h-164zM233 631h541q0 147 -66.5 237t-194.5 90t-198.5 -90t-81.5 -237z" />
<glyph unicode="&#xeb;" d="M82 532q0 258 118 406q118 147 316 147q177 0 284 -113q122 -129 122 -370v-98h-693q0 -174 93 -286t223 -112q194 0 295 181l114 -60q-70 -117 -129 -160q-117 -87 -280 -87q-196 0 -321 130q-142 150 -142 422zM233 631h541q0 147 -66.5 237t-194.5 90t-198.5 -90 t-81.5 -237zM260 1208v193h180v-193h-180zM583 1208v193h181v-193h-181z" />
<glyph unicode="&#xec;" horiz-adv-x="569" d="M12 1479h224l182 -291h-137zM211 0v1065h147v-1065h-147z" />
<glyph unicode="&#xed;" horiz-adv-x="569" d="M152 1188l182 291h223l-268 -291h-137zM211 0v1065h147v-1065h-147z" />
<glyph unicode="&#xee;" horiz-adv-x="569" d="M-14 1188l200 291h193l205 -291h-164l-137 192l-133 -192h-164zM211 0v1065h147v-1065h-147z" />
<glyph unicode="&#xef;" horiz-adv-x="569" d="M33 1208v193h180v-193h-180zM211 0v1065h147v-1065h-147zM356 1208v193h181v-193h-181z" />
<glyph unicode="&#xf0;" d="M76 504q0 364 246 478q81 38 190 38q61 0 152 -29q-42 86 -132 189l-217 -119l-69 98l207 113q-100 96 -191 158l129 49q92 -57 174 -140l226 123l61 -102l-199 -113q207 -237 273 -522q22 -98 22 -208t-27.5 -210t-82.5 -173q-114 -154 -326 -154q-213 0 -326 144 q-110 139 -110 380zM223 503.5q0 -181.5 71 -289.5t218 -108t218 108t71 290q0 280 -161 362q-54 27 -128 27q-144 0 -218 -107q-71 -101 -71 -282.5z" />
<glyph unicode="&#xf1;" horiz-adv-x="1138" d="M182 0v1065h148v-143h4q143 163 315 163q211 0 281 -165q26 -60 26 -146v-774h-147v770q0 106 -47 147t-107.5 41t-104.5 -15t-84 -39q-80 -47 -136 -107v-797h-148zM219 1206q10 92 63.5 158t156.5 66q57 0 120.5 -26.5t96 -38t68.5 -11.5t61.5 24.5t31.5 65.5h103 q-15 -135 -123 -198q-35 -21 -76 -21q-59 0 -130 27q-131 51 -173.5 51t-68 -31t-27.5 -66h-103z" />
<glyph unicode="&#xf2;" d="M76 532q0 243 110 392q117 161 326 161t326 -161q110 -149 110 -392q0 -242 -110 -392q-117 -160 -326 -160t-326 160q-110 150 -110 392zM223 532q0 -207 78 -316.5t211 -109.5t211 109.5t78 316.5t-78 316.5t-211 109.5t-211 -109.5t-78 -316.5zM239 1479h224l182 -291 h-137z" />
<glyph unicode="&#xf3;" d="M76 532q0 243 110 392q117 161 326 161t326 -161q110 -149 110 -392q0 -242 -110 -392q-117 -160 -326 -160t-326 160q-110 150 -110 392zM223 532q0 -207 78 -316.5t211 -109.5t211 109.5t78 316.5t-78 316.5t-211 109.5t-211 -109.5t-78 -316.5zM379 1188l182 291h223 l-268 -291h-137z" />
<glyph unicode="&#xf4;" d="M76 532q0 243 110 392q117 161 326 161t326 -161q110 -149 110 -392q0 -242 -110 -392q-117 -160 -326 -160t-326 160q-110 150 -110 392zM213 1188l200 291h193l205 -291h-164l-137 192l-133 -192h-164zM223 532q0 -207 78 -316.5t211 -109.5t211 109.5t78 316.5 t-78 316.5t-211 109.5t-211 -109.5t-78 -316.5z" />
<glyph unicode="&#xf5;" d="M76 532q0 243 110 392q117 161 326 161t326 -161q110 -149 110 -392q0 -242 -110 -392q-117 -160 -326 -160t-326 160q-110 150 -110 392zM161 1206q10 92 63.5 158t156.5 66q57 0 120.5 -26.5t96 -38t68.5 -11.5t61.5 24.5t31.5 65.5h103q-15 -135 -123 -198 q-35 -21 -76 -21q-59 0 -130 27q-131 51 -173.5 51t-68 -31t-27.5 -66h-103zM223 532q0 -207 78 -316.5t211 -109.5t211 109.5t78 316.5t-78 316.5t-211 109.5t-211 -109.5t-78 -316.5z" />
<glyph unicode="&#xf6;" d="M76 532q0 243 110 392q117 161 326 161t326 -161q110 -149 110 -392q0 -242 -110 -392q-117 -160 -326 -160t-326 160q-110 150 -110 392zM223 532q0 -207 78 -316.5t211 -109.5t211 109.5t78 316.5t-78 316.5t-211 109.5t-211 -109.5t-78 -316.5zM260 1208v193h180v-193 h-180zM583 1208v193h181v-193h-181z" />
<glyph unicode="&#xf7;" horiz-adv-x="1228" d="M82 469v127h1065v-127h-1065zM487 106q0 53 37 90t90 37t90 -36.5t37 -90.5q0 -53 -36.5 -89.5t-90.5 -36.5q-53 0 -90 36.5t-37 89.5zM487 958q0 53 37 90t90 37t90 -36.5t37 -90.5q0 -53 -36.5 -90t-90.5 -37q-53 0 -90 37t-37 90z" />
<glyph unicode="&#xf8;" d="M33 -168l170 289q-127 150 -127 411q0 243 110 392q117 161 326 161q129 0 221 -63l125 211h133l-168 -287q125 -156 125 -414q0 -242 -110 -392q-117 -160 -326 -160q-135 0 -223 63l-125 -211h-131zM223 548.5q0 -190.5 58 -294.5l385 653q-63 51 -154 51 q-133 0 -211 -109.5t-78 -300zM356 158q63 -51 156 -52q133 0 211 110t78 300t-58 295z" />
<glyph unicode="&#xf9;" horiz-adv-x="1138" d="M182 291v774h148v-770q0 -106 47 -147.5t107.5 -41.5t104.5 15.5t84 38.5q75 45 136 108v797h147v-1065h-147v143h-4q-143 -163 -316 -163q-211 0 -281 166q-26 59 -26 145zM297 1479h224l182 -291h-137z" />
<glyph unicode="&#xfa;" horiz-adv-x="1138" d="M182 291v774h148v-770q0 -106 47 -147.5t107.5 -41.5t104.5 15.5t84 38.5q75 45 136 108v797h147v-1065h-147v143h-4q-143 -163 -316 -163q-211 0 -281 166q-26 59 -26 145zM437 1188l182 291h223l-268 -291h-137z" />
<glyph unicode="&#xfb;" horiz-adv-x="1138" d="M182 291v774h148v-770q0 -106 47 -147.5t107.5 -41.5t104.5 15.5t84 38.5q75 45 136 108v797h147v-1065h-147v143h-4q-143 -163 -316 -163q-211 0 -281 166q-26 59 -26 145zM271 1188l200 291h193l205 -291h-164l-137 192l-133 -192h-164z" />
<glyph unicode="&#xfc;" horiz-adv-x="1138" d="M182 291v774h148v-770q0 -106 47 -147.5t107.5 -41.5t104.5 15.5t84 38.5q75 45 136 108v797h147v-1065h-147v143h-4q-143 -163 -316 -163q-211 0 -281 166q-26 59 -26 145zM318 1208v193h180v-193h-180zM641 1208v193h181v-193h-181z" />
<glyph unicode="&#xfd;" horiz-adv-x="909" d="M25 1065h155l287 -813h4l250 813h156l-375 -1159q-53 -164 -156 -239q-83 -60 -203 -60q-40 0 -106 12v121q48 -6 80.5 -6t73 7t79.5 33q94 61 125 214zM322 1188l182 291h223l-268 -291h-137z" />
<glyph unicode="&#xfe;" horiz-adv-x="1138" d="M180 -393v1872h148v-539h4q35 55 120 102q76 43 151 43t153 -26.5t142 -90.5q146 -146 146 -436q0 -280 -146 -430q-62 -65 -138 -93.5t-148 -28.5q-135 0 -276 118l-8 4v-495h-148zM328 254q59 -66 130.5 -107t136 -41t120 23t96.5 74q86 107 86 325t-81 324t-220 106 q-72 0 -131 -32.5t-137 -110.5v-561z" />
<glyph unicode="&#xff;" horiz-adv-x="909" d="M25 1065h155l287 -813h4l250 813h156l-375 -1159q-53 -164 -156 -239q-83 -60 -203 -60q-40 0 -106 12v121q48 -6 80.5 -6t73 7t79.5 33q94 61 125 214zM203 1208v193h180v-193h-180zM526 1208v193h181v-193h-181z" />
<glyph unicode="&#x152;" horiz-adv-x="2048" d="M74 739q0 533 345 701q120 59 290 59q98 0 180 -10t160 -10h882v-140h-723v-495h514v-139h-514v-566h764v-139h-923q-78 0 -160 -10t-180 -10q-323 0 -487 218q-148 198 -148 541zM238 739q0 -620 467 -620q172 0 251 57q88 63 88 209v709q0 150 -87 208t-252 58 q-467 0 -467 -621z" />
<glyph unicode="&#x153;" horiz-adv-x="1593" d="M47 532q0 251 116 406q110 147 296 147q225 0 344 -190q53 111 144 150.5t181.5 39.5t161 -27.5t124.5 -85.5q118 -128 118 -370v-98h-655q0 -283 148 -368q52 -30 139 -30t159 48.5t107 132.5l114 -60q-110 -247 -389 -247q-127 0 -214 45t-138 149q-114 -194 -344 -194 q-186 0 -296 147q-116 155 -116 405zM195 532q0 -205 67.5 -315.5t199.5 -110.5t199.5 111t67.5 315q0 426 -270 426q-129 0 -196.5 -110.5t-67.5 -315.5zM881 631h503q0 147 -66.5 237t-193.5 90t-184 -90t-59 -237z" />
<glyph unicode="&#x178;" horiz-adv-x="1138" d="M33 1479h180l356 -678l357 678h180l-455 -856v-623h-164v623zM318 1577v193h180v-193h-180zM641 1577v193h181v-193h-181z" />
<glyph unicode="&#x2c6;" horiz-adv-x="569" d="M-14 1188l200 291h193l205 -291h-164l-137 192l-133 -192h-164z" />
<glyph unicode="&#x2dc;" horiz-adv-x="569" d="M-66 1206q10 92 63.5 158t156.5 66q57 0 120.5 -26.5t96 -38t68.5 -11.5t61.5 24.5t31.5 65.5h103q-15 -135 -123 -198q-35 -21 -76 -21q-59 0 -130 27q-131 51 -173.5 51t-68 -31t-27.5 -66h-103z" />
<glyph unicode="&#x2000;" horiz-adv-x="983" />
<glyph unicode="&#x2001;" horiz-adv-x="1966" />
<glyph unicode="&#x2002;" horiz-adv-x="983" />
<glyph unicode="&#x2003;" horiz-adv-x="1966" />
<glyph unicode="&#x2004;" horiz-adv-x="655" />
<glyph unicode="&#x2005;" horiz-adv-x="491" />
<glyph unicode="&#x2006;" horiz-adv-x="327" />
<glyph unicode="&#x2007;" horiz-adv-x="327" />
<glyph unicode="&#x2008;" horiz-adv-x="245" />
<glyph unicode="&#x2009;" horiz-adv-x="393" />
<glyph unicode="&#x200a;" horiz-adv-x="109" />
<glyph unicode="&#x2010;" horiz-adv-x="681" d="M82 469v127h516v-127h-516z" />
<glyph unicode="&#x2011;" horiz-adv-x="681" d="M82 469v127h516v-127h-516z" />
<glyph unicode="&#x2012;" horiz-adv-x="681" d="M82 469v127h516v-127h-516z" />
<glyph unicode="&#x2013;" d="M0 481v103h1024v-103h-1024z" />
<glyph unicode="&#x2014;" horiz-adv-x="2048" d="M0 481v103h2048v-103h-2048z" />
<glyph unicode="&#x2018;" horiz-adv-x="569" d="M178 983v225l129 291h86l-96 -291h82v-225h-201z" />
<glyph unicode="&#x2019;" horiz-adv-x="569" d="M176 963l96 290h-82v226h201v-226l-129 -290h-86z" />
<glyph unicode="&#x201a;" horiz-adv-x="569" d="M176 -291l96 291h-82v225h201v-225l-129 -291h-86z" />
<glyph unicode="&#x201c;" d="M211 983v225l129 291h86l-96 -291h82v-225h-201zM629 983v225l129 291h86l-96 -291h81v-225h-200z" />
<glyph unicode="&#x201d;" d="M180 963l96 290h-81v226h200v-226l-129 -290h-86zM598 963l96 290h-82v226h201v-226l-129 -290h-86z" />
<glyph unicode="&#x201e;" d="M180 -291l96 291h-81v225h200v-225l-129 -291h-86zM598 -291l96 291h-82v225h201v-225l-129 -291h-86z" />
<glyph unicode="&#x2022;" d="M141 738q0 77 29 144.5t79 117.5q106 108 261 108q153 0 262 -108q109 -107 109 -261q0 -153 -109 -262q-108 -108 -262 -108q-155 0 -261 108q-108 110 -108 261z" />
<glyph unicode="&#x2026;" horiz-adv-x="2048" d="M242 0v225h200v-225h-200zM924 0v225h200v-225h-200zM1606 0v225h200v-225h-200z" />
<glyph unicode="&#x202f;" horiz-adv-x="393" />
<glyph unicode="&#x2039;" horiz-adv-x="681" d="M111 532l266 324h143l-264 -324l264 -323h-139z" />
<glyph unicode="&#x203a;" horiz-adv-x="681" d="M162 209l264 323l-264 324h143l266 -324l-270 -323h-139z" />
<glyph unicode="&#x205f;" horiz-adv-x="491" />
<glyph unicode="&#x2122;" horiz-adv-x="2027" d="M111 1368v111h659v-111h-262v-733h-139v733h-258zM893 635v844h215l254 -639l246 639h215v-844h-140v704h-4l-276 -704h-90l-277 704h-4v-704h-139z" />
<glyph unicode="&#xe000;" horiz-adv-x="1064" d="M0 0v1065h1065v-1065h-1065z" />
<glyph unicode="&#xfb01;" horiz-adv-x="1138" d="M29 938v127h180v121q0 262 145 300q49 13 106.5 13t139.5 -10v-131q-94 14 -106 14q-76 0 -107 -30.5t-31 -120.5v-156h232v-127h-232v-938h-147v938h-180zM813 0v1065h148v-1065h-148zM813 1323v176h148v-176h-148z" />
<glyph unicode="&#xfb02;" horiz-adv-x="1138" d="M29 938v127h180v121q0 262 145 300q49 13 106.5 13t139.5 -10v-131q-94 14 -106 14q-76 0 -107 -30.5t-31 -120.5v-156h232v-127h-232v-938h-147v938h-180zM813 0v1479h148v-1479h-148z" />
</font>
</defs>
</svg>
